<svg xmlns="http://www.w3.org/2000/svg" width="200" height="200">
  <path d="M161.3 93.89c6.732-16.256 6.732-34.52 0-50.775C147.277 9.265 108.47-6.81 74.62 7.21 40.77 21.233 24.698 60.04 38.72 93.89L99.98 200z" fill="#5bc0de"/>
  <g fill="#fff" fill-opacity=".5" id="g1011">
    <path d="M118,102.8H86.8c-6.3,0-11.3-4.7-11.3-10.2V61.1c0-1,0.8-1.7,1.9-1.7s1.9,0.7,1.9,1.7v31.4c0,3.8,3.5,6.8,7.5,6.8H118   c4.2,0,7.5-3.1,7.5-6.8V61.1c0-1,0.8-1.7,1.9-1.7c1.2,0,1.9,0.7,1.9,1.7v31.4C129.3,98.1,124.1,102.8,118,102.8z" id="path1001" />
    <path d="M128.2,41.9h-14.6c-1-4.9-5.6-8.5-11.2-8.5c-5.6,0-10.2,3.6-11.2,8.5H76.6c-4.4,0-7.9,3.1-7.9,7.1s3.5,6.9,7.9,6.9h51.7   c4.4,0,7.9-3.1,7.9-7.1S132.6,41.9,128.2,41.9z M102.4,36.9c3.5,0,6.3,2.1,7.1,5H95.1C96,38.9,98.9,36.9,102.4,36.9z M128.2,52.5   H76.6c-2.1,0-4-1.6-4-3.6c0-1.9,1.7-3.6,4-3.6h51.7c2.1,0,4,1.6,4,3.6C132.2,50.9,130.5,52.5,128.2,52.5z" id="path1003" />
    <path d="M88.9,94.3c-1.2,0-1.9-0.7-1.9-1.7v-29c0-1,0.8-1.7,1.9-1.7s1.9,0.7,1.9,1.7v29C90.8,93.4,89.9,94.3,88.9,94.3z" id="path1005" />
    <path d="M115.8,94.3c-1.2,0-1.9-0.7-1.9-1.7v-29c0-1,0.8-1.7,1.9-1.7s1.9,0.7,1.9,1.7v29C117.8,93.4,116.8,94.3,115.8,94.3z" id="path1007" />
    <path d="M102.4,94.3c-1.2,0-1.9-0.7-1.9-1.7v-29c0-1,0.8-1.7,1.9-1.7s1.9,0.7,1.9,1.7v29C104.3,93.4,103.3,94.3,102.4,94.3z" id="path1009" />
  </g>
</svg>
