<svg xmlns="http://www.w3.org/2000/svg" xmlns:xlink="http://www.w3.org/1999/xlink" width="247.725" height="29.281" viewBox="0 0 65.544 7.747">
  <defs>
    <linearGradient id="a">
      <stop offset="0" stop-color="#0084b0"/>
      <stop offset="1" stop-color="#00a356"/>
    </linearGradient>
    <linearGradient xlink:href="#a" id="b" x1="43.872" y1="127.054" x2="109.416" y2="127.054" gradientUnits="userSpaceOnUse"/>
  </defs>
  <path d="M48 123.18c-.784 0-1.49.167-2.118.498a3.667 3.667 0 0 0-1.481 1.376c-.353.585-.53 1.252-.53 2s.177 1.418.53 2.011c.36.586.854 1.044 1.481 1.376.628.324 1.334.487 2.117.487.72 0 1.362-.127 1.927-.381a3.575 3.575 0 0 0 1.396-1.101l-1.576-1.408c-.459.579-.999.868-1.62.868-.522 0-.942-.166-1.26-.497-.317-.339-.476-.79-.476-1.355 0-.564.16-1.012.477-1.344.317-.339.737-.508 1.26-.508.62 0 1.16.29 1.619.868l1.576-1.408a3.575 3.575 0 0 0-1.396-1.1c-.565-.255-1.207-.381-1.927-.381zm22.604 0c-.797 0-1.514.167-2.149.498a3.723 3.723 0 0 0-2.032 3.376c0 .741.18 1.408.54 2 .36.586.857 1.045 1.492 1.376.635.332 1.352.498 2.149.498.797 0 1.513-.166 2.148-.498a3.748 3.748 0 0 0 1.493-1.375c.36-.593.54-1.26.54-2a3.725 3.725 0 0 0-2.032-3.376c-.636-.332-1.352-.498-2.149-.498zm35.7 0c-.74 0-1.372.11-1.894.329-.515.218-.903.518-1.164.9a2.196 2.196 0 0 0-.392 1.27c0 .535.141.962.423 1.28.283.31.614.536.995.677.381.134.858.261 1.429.381.445.092.762.177.952.254.198.078.297.194.297.35 0 .134-.075.236-.223.307-.148.063-.394.095-.74.095a4.76 4.76 0 0 1-1.26-.18 5.296 5.296 0 0 1-1.185-.498l-.804 1.82c.374.234.85.42 1.428.561a8.039 8.039 0 0 0 1.8.202c.74 0 1.368-.11 1.883-.328.522-.226.914-.526 1.175-.9.261-.38.392-.804.392-1.27 0-.536-.145-.96-.434-1.27a2.401 2.401 0 0 0-1.006-.667 9.218 9.218 0 0 0-1.428-.37c-.438-.085-.752-.162-.942-.233-.19-.078-.286-.19-.286-.338 0-.31.32-.467.963-.467.649 0 1.337.184 2.064.55l.751-1.809a4.573 4.573 0 0 0-1.301-.476 6.586 6.586 0 0 0-1.493-.17zm-54.546.17v1.884h2.646l-1.09 1.111v1.535h.984c.586 0 .878.169.878.508 0 .183-.088.324-.264.423-.176.1-.41.148-.699.148a4.033 4.033 0 0 1-1.99-.54l-.846 1.842c.388.218.84.385 1.355.497.522.113 1.044.17 1.566.17.755 0 1.386-.12 1.894-.36s.882-.55 1.122-.931c.247-.389.37-.805.37-1.25 0-.522-.155-.966-.465-1.333-.304-.374-.74-.631-1.312-.772l1.375-1.398v-1.534zm6.776 0v7.408h4.17c1.016 0 1.792-.176 2.328-.529.536-.36.805-.864.805-1.513 0-.438-.12-.812-.36-1.122-.24-.31-.579-.547-1.016-.71.338-.169.593-.39.762-.666.176-.275.264-.585.264-.931 0-.586-.254-1.055-.762-1.408-.5-.353-1.245-.529-2.233-.529zm16.492 0v1.937h2.17v5.471h2.498v-5.471h2.17v-1.937zm7.028 0v1.937h2.17v5.471h2.498v-5.471h2.17v-1.937zm7.486 0v7.408h5.842v-1.936h-3.344v-5.472zm6.532 0v7.408h6.16v-1.884h-3.705v-1.57h1.41a1.075 1.075 0 0 0 1.044.825 1.075 1.075 0 0 0 1.075-1.075 1.075 1.075 0 0 0-1.075-1.075 1.075 1.075 0 0 0-1.044.825h-1.41v-1.57h3.567v-1.884zm-35.082 1.746h1.164c.543 0 .815.184.815.55 0 .367-.272.55-.815.55H60.99zm9.614.106c.31 0 .59.077.836.233.254.148.455.363.603.646.148.275.222.6.222.973 0 .374-.074.702-.222.984-.148.275-.349.49-.603.646a1.593 1.593 0 0 1-.836.222 1.65 1.65 0 0 1-.847-.222 1.692 1.692 0 0 1-.592-.646 2.086 2.086 0 0 1-.223-.984c0-.374.075-.698.223-.973.148-.283.345-.498.592-.646.254-.155.537-.233.847-.233zm-9.614 2.646h1.502c.55 0 .826.194.826.582 0 .388-.275.582-.826.582H60.99z" fill="url(#b)" transform="translate(-43.872 -123.18)"/>
</svg>
