<svg xmlns="http://www.w3.org/2000/svg" height="153" width="159" version="1">
  <g fill="#5bc0de">
    <path d="M81 51c6.48-.084 7.39 1.305 8 5v50h12c4.134-.367 8.418-.368 10-7V41c-.59-6.328-1.45-13.018-10-30-.65-1.093-.628-2.117 0-3l1-1V0H89.006l-.03 7.014L90 8c.645 1.102.74 1.808 0 3-5.1 8.097-8.19 18.36-10 30v9c.136.73.61.782 1 1z"/>
    <path d="M53 61v46c.824 3.332 4.702 5.28 6.945 5.01h16.082c2.128-.16 6.23-2.005 5.973-6.01V61c-.002.002-2.978-5.013-2.97-5l-23.027.003C55.998 56.02 53.01 61.005 53 61z"/>
    <path d="M117 72v16.002l13.998.002C146 88.01 145.995 119.006 131 119H31v-18L0 127l31 26v-17h100c14.99-.003 28.003-15 28-30 0-19.994-13-33.996-28-34h-14z"/>
  </g>
</svg>
