<?xml version="1.0" encoding="utf-8"?>
<!-- Generator: Adobe Illustrator 22.0.0, SVG Export Plug-In . SVG Version: 6.00 Build 0)  -->
<svg version="1.1" id="Ebene_1" xmlns="http://www.w3.org/2000/svg" xmlns:xlink="http://www.w3.org/1999/xlink" x="0px" y="0px"
	 viewBox="0 0 200 200" style="enable-background:new 0 0 200 200;" xml:space="preserve">
<style type="text/css">
	.st0{fill:#D9534F;stroke:#D9534F;stroke-width:4;}
	.st1{fill:#888888;fill-opacity:0.5;}
</style>
<path class="st0" d="M161.3,93.9c6.7-16.3,6.7-34.5,0-50.8c-14-33.8-52.8-49.9-86.7-35.9C40.8,21.2,24.7,60,38.7,93.9L100,200
	L161.3,93.9z"/>
<g>
	<path class="st1" d="M118,102.8H86.8c-6.3,0-11.3-4.7-11.3-10.2V61.1c0-1,0.8-1.7,1.9-1.7s1.9,0.7,1.9,1.7v31.4
		c0,3.8,3.5,6.8,7.5,6.8H118c4.2,0,7.5-3.1,7.5-6.8V61.1c0-1,0.8-1.7,1.9-1.7c1.2,0,1.9,0.7,1.9,1.7v31.4
		C129.3,98.1,124.1,102.8,118,102.8z"/>
	<path class="st1" d="M128.2,41.9h-14.6c-1-4.9-5.6-8.5-11.2-8.5S92.2,37,91.2,41.9H76.6c-4.4,0-7.9,3.1-7.9,7.1s3.5,6.9,7.9,6.9
		h51.7c4.4,0,7.9-3.1,7.9-7.1S132.6,41.9,128.2,41.9z M102.4,36.9c3.5,0,6.3,2.1,7.1,5H95.1C96,38.9,98.9,36.9,102.4,36.9z
		 M128.2,52.5H76.6c-2.1,0-4-1.6-4-3.6c0-1.9,1.7-3.6,4-3.6h51.7c2.1,0,4,1.6,4,3.6C132.2,50.9,130.5,52.5,128.2,52.5z"/>
	<path class="st1" d="M88.9,94.3c-1.2,0-1.9-0.7-1.9-1.7v-29c0-1,0.8-1.7,1.9-1.7s1.9,0.7,1.9,1.7v29C90.8,93.4,89.9,94.3,88.9,94.3
		z"/>
	<path class="st1" d="M115.8,94.3c-1.2,0-1.9-0.7-1.9-1.7v-29c0-1,0.8-1.7,1.9-1.7s1.9,0.7,1.9,1.7v29
		C117.8,93.4,116.8,94.3,115.8,94.3z"/>
	<path class="st1" d="M102.4,94.3c-1.2,0-1.9-0.7-1.9-1.7v-29c0-1,0.8-1.7,1.9-1.7s1.9,0.7,1.9,1.7v29
		C104.3,93.4,103.3,94.3,102.4,94.3z"/>
</g>
</svg>
