<svg xmlns="http://www.w3.org/2000/svg" width="200" height="200">
  <path d="M161.3 93.89c6.732-16.256 6.732-34.52 0-50.775C147.277 9.265 108.47-6.81 74.62 7.21 40.77 21.233 24.698 60.04 38.72 93.89L99.98 200z" fill="#6f5499"/>
  <g fill="#fff" fill-opacity=".5">
    <path d="M100.69 53.892c2.985-.04 3.404.6 3.685 2.302v23.024h5.525c1.904-.17 3.876-.17 4.605-3.223V49.287c-.272-2.914-.668-5.994-4.605-13.814-.3-.503-.29-.975 0-1.38l.46-.462V30.41h-5.983l-.014 3.23.472.454c.297.507.34.832 0 1.38-2.348 3.73-3.77 8.455-4.605 13.815v4.144c.063.338.28.362.46.462z"/>
    <path d="M87.797 58.497V79.68c.38 1.533 2.166 2.43 3.198 2.306H98.4c.98-.074 2.87-.924 2.75-2.768v-20.72l-1.366-2.304-10.604.002c-.002.008-1.378 2.303-1.383 2.3z"/>
    <path d="M117.268 63.562v7.368h6.446c6.908.004 6.905 14.277 0 14.274H77.667v-8.288L63.392 88.888l14.275 11.972v-7.828h46.047c6.903 0 12.895-6.907 12.894-13.814 0-9.207-5.986-15.654-12.894-15.656h-6.446z"/>
  </g>
</svg>
