<?xml version="1.0" encoding="utf-8"?>
<!-- Generator: Adobe Illustrator 23.0.5, SVG Export Plug-In . SVG Version: 6.00 Build 0)  -->
<svg version="1.1" id="Ebene_1" xmlns="http://www.w3.org/2000/svg" xmlns:xlink="http://www.w3.org/1999/xlink" x="0px" y="0px"
	 viewBox="0 0 841.89 595.28" style="enable-background:new 0 0 841.89 595.28;" xml:space="preserve">
<style type="text/css">
	.st0{fill:#020203;}
	.st1{font-family:'Arial-BoldMT';}
	.st2{font-size:88.6641px;}
	.st3{font-family:'ArialMT';}
	.st4{font-size:21.4204px;}
	.st5{font-family:'BlackoutMidnightUmlauts';}
	.st6{font-size:92.5344px;}
	.st7{letter-spacing:-1;}
	.st8{fill:#3EAB38;}
	.st9{fill:none;}
	.st10{fill:#D0D0CE;}
	.st11{fill:#E9531E;}
</style>
<g>
	<g id="text947">
		<text transform="matrix(1 0 0 1 46.4961 430.1885)" class="st0 st1 st2">{{ number }}</text>
	</g>
	<g id="text1016">
		<text transform="matrix(1 0 0 1 499.9805 490.6514)" class="st0 st3 st4">If full, please report at</text>
		<text transform="matrix(1 0 0 1 499.9805 517.4287)" class="st0 st3 st4">{{ request.url_root }}{{ number }}</text>
	</g>
	<text transform="matrix(1 0 0 1 48.9536 110.0112)" class="st0 st5 st6">Bottle</text>
	<text transform="matrix(1 0 0 1 48.9536 215.8706)" class="st0 st5 st6">D</text>
	<text transform="matrix(1 0 0 1 102.6299 215.8706)" class="st0 st5 st6 st7">r</text>
	<text transform="matrix(1 0 0 1 148.5347 215.8706)" class="st0 st5 st6">op</text>
	<text transform="matrix(1 0 0 1 48.9536 321.7324)" class="st0 st5 st6">point</text>
	<path id="path16" class="st8" d="M505.85,465.6"/>
	<path id="path24" class="st8" d="M505.85,465.6"/>
	<path id="path28" class="st8" d="M505.85,465.6"/>
	<path id="path32" class="st8" d="M505.85,465.6"/>
	<path id="path22" class="st8" d="M207.91,465.6l6.75,11.24h5.44c0.3,0.53,0.98,0.72,1.52,0.41c0.53-0.3,0.72-0.98,0.41-1.52
		c-0.3-0.53-0.98-0.72-1.52-0.41c-0.17,0.1-0.31,0.24-0.41,0.41h-4.81l-5.43-9.04h10.96l6.87,6.87v1.41l-6.41-6.4h-5.35
		c-0.3-0.53-0.98-0.72-1.52-0.41c-0.53,0.3-0.72,0.98-0.41,1.52c0.3,0.53,0.98,0.72,1.52,0.41c0.17-0.1,0.31-0.24,0.41-0.41h4.89
		l7,7l1.59,2.22l0.74,1.7l0.19,0.04l1.87,1.32l2.63,1.18l1.62,0.7l1.23,2.01l-0.62-2.43l-1.31-0.9l-2.32-1.38l-1.55-1.48l-0.24-0.08
		l-1.3-1.33l-1.52-2.12v-3.01l-7.52-7.51H207.91z"/>
	<path id="path44" class="st9" d="M294.78,516.73"/>
	<path id="path48" class="st9" d="M294.78,516.73"/>
	<path id="path52" class="st9" d="M294.78,516.73"/>
	<path id="path58" class="st9" d="M294.78,516.73"/>
	<path id="path62" class="st9" d="M294.78,516.73"/>
	<path id="path68" class="st9" d="M294.78,516.73"/>
	<path id="path1742" class="st9" d="M294.78,516.73"/>
	<path id="path1746" class="st9" d="M294.78,516.73"/>
	<path id="path1750" class="st9" d="M294.78,516.73"/>
	<path id="path1754" class="st9" d="M294.78,516.73"/>
	<path id="path1758" class="st9" d="M294.78,516.73"/>
	<path id="path1762" class="st9" d="M294.78,516.73"/>
	<path id="path1766" class="st9" d="M294.78,516.73"/>
	<path id="path1770" class="st9" d="M294.78,516.73"/>
	<path id="path1774" class="st9" d="M294.78,516.73"/>
	<path id="path1778" class="st9" d="M294.78,516.73"/>
	<path id="path1782" class="st9" d="M294.78,516.73"/>
	<path id="path1786" class="st9" d="M294.78,516.73"/>
	<path id="path1790" class="st9" d="M294.78,516.73"/>
	<path id="path1794" class="st9" d="M294.78,516.73"/>
	<path id="path1800" class="st9" d="M294.78,516.73"/>
	<path id="path2233" class="st9" d="M294.78,516.73"/>
	<path id="path2237" class="st9" d="M294.78,516.73"/>
	<path id="path2241" class="st9" d="M294.78,516.73"/>
	<path id="path2245" class="st9" d="M294.78,516.73"/>
	<path id="path2249" class="st9" d="M294.78,516.73"/>
	<path id="path2253" class="st9" d="M294.78,516.73"/>
	<path id="path2257" class="st9" d="M294.78,516.73"/>
	<path id="path2261" class="st9" d="M294.78,516.73"/>
	<path id="path2265" class="st9" d="M294.78,516.73"/>
	<path id="path2269" class="st9" d="M294.78,516.73"/>
	<path id="path2273" class="st9" d="M294.78,516.73"/>
	<path id="path2277" class="st9" d="M294.78,516.73"/>
	<path id="path2281" class="st9" d="M294.78,516.73"/>
	<path id="path2285" class="st9" d="M294.78,516.73"/>
	<path id="path2291" class="st9" d="M294.78,516.73"/>
	<path id="path3260" class="st9" d="M294.78,516.73"/>
	<path id="path3266" class="st9" d="M294.78,516.73"/>
	<path id="path3314" class="st9" d="M294.78,516.73"/>
	<path id="path3320" class="st9" d="M294.78,516.73"/>
	<path id="path3340" class="st9" d="M294.78,516.73"/>
	<path id="path7713" class="st9" d="M294.78,516.73"/>
	<path id="path7719" class="st9" d="M294.78,516.73"/>
	<path id="path7725" class="st9" d="M294.78,516.73"/>
	<path id="path7773" class="st9" d="M294.78,516.73"/>
	<path id="path8214" class="st9" d="M294.78,516.73"/>
	<path id="path8218" class="st9" d="M294.78,516.73"/>
	<path id="path8222" class="st9" d="M294.78,516.73"/>
	<path id="path8226" class="st9" d="M294.78,516.73"/>
	<path id="path8230" class="st9" d="M294.78,516.73"/>
	<path id="path8234" class="st9" d="M294.78,516.73"/>
	<path id="path8238" class="st9" d="M294.78,516.73"/>
	<path id="path8242" class="st9" d="M294.78,516.73"/>
	<path id="path8246" class="st9" d="M294.78,516.73"/>
	<path id="path8250" class="st9" d="M294.78,516.73"/>
	<path id="path8254" class="st9" d="M294.78,516.73"/>
	<path id="path8258" class="st9" d="M294.78,516.73"/>
	<path id="path8262" class="st9" d="M294.78,516.73"/>
	<path id="path8266" class="st9" d="M294.78,516.73"/>
	<path id="path8272" class="st9" d="M294.78,516.73"/>
	<path id="path2" class="st10" d="M173.8,526.8c1.16,1.83,2.03,3.83,2.57,5.92c0.44,1.72,0.67,3.49,0.68,5.26l-0.98-0.1l-2.54,0.93
		l-1.52,0.86l-2.02-0.08l-2.67-1.69l-2.3-1.27l-2.04-0.91l-1.7-0.56l-0.74-0.29c-0.57-0.86-1.33-1.58-2.22-2.1v-1.54l-2.67-1.56
		l0.56-2.96l-2.05-1.27l-0.33-2.66l1.64-2.66l0.19-1.7l-0.68-1.92l1.14-1.48l2.3-1.72l1.8-1.38l1.02-1.37l0.83-1.76
		c0.28,0.82,0.51,1.66,0.68,2.52c0.46,2.28,0.53,4.61,0.21,6.91c2.19,0.73,4.24,1.83,6.08,3.23c1.9,1.47,3.52,3.28,4.77,5.34H173.8z
		"/>
	<path id="path4" class="st10" d="M155.58,527.87c-0.95,2.01-2.22,3.85-3.75,5.45c-1.55,1.61-3.34,2.97-5.3,4.03
		c-2.04,1.1-4.25,1.85-6.54,2.22c-2.79,0.5-5.66,0.41-8.42-0.26c-5.38-1.3-10.05-4.63-13.03-9.29c-1.53-2.4-2.56-5.09-3.02-7.91
		l15.27-2.58c0.23,1.52,1.07,2.88,2.32,3.77c2.31,1.67,5.5,1.37,7.45-0.7c0.81-0.89,1.33-2.01,1.48-3.21c0.11-0.55,0.11-1.13,0-1.68
		c0-0.07,0-0.13-0.04-0.19l0.54,0.53l1.37,1.15l1.52,1.63l1.66,2.05l1.85,2.52l1.84,0.84l1.74-0.21l2.69,0.1l0.87,0.47
		c-0.18,0.42-0.36,0.84-0.56,1.27L155.58,527.87z"/>
	<path id="path6" class="st10" d="M173.28,516.75l4.97-27.77c0.47-2.62,1.43-5.13,2.83-7.4c1.1-1.83,2.47-3.47,4.07-4.88l0.05,0.1
		l0.93,1.16l0.93,2.43l1.87,2.17l1.12,2.52l-0.64,2.02l0.69,1.48l-0.27,2.1l0.36,2.28l-0.31,2.07l-0.08,2.47l-0.11,1.91l-0.63,2.22
		l-1.7,1.48l0.59,1.92l-1.15,2.22l-0.19,2.82l-1.48,0.96l-0.58,1.41l-1.48,2.22l-1.75,1.52l-0.69,2.16l-2.53,0.21l-0.89,1.87
		l-2.59-1.04l-1.68,1.86c-0.04-1.51,0.08-3.01,0.35-4.49V516.75z"/>
	<path id="path8" class="st10" d="M215.02,522.02c-0.43,2.77-1.32,5.45-2.64,7.93c-1.23,2.3-2.89,4.35-4.89,6.03
		c-2.03,1.67-4.41,2.86-6.97,3.49c-2.91,0.69-5.94,0.77-8.88,0.24c-3.01-0.44-5.92-1.42-8.59-2.89c-2.31-1.28-4.32-3.02-5.92-5.12
		c-1.51-2.02-2.59-4.34-3.15-6.81c-0.26-1.14-0.43-2.3-0.48-3.47l1.65-1.89l2.58,0.96l0.87-1.88l2.52-0.25l0.65-2.17l1.73-1.55
		l1.44-2.22l0.56-1.43l1.48-0.98l0.14-2.82l1.12-2.22l-0.62-1.92l1.67-1.53l0.6-2.22l0.07-1.91l0.04-2.47l0.27-2.07l-0.38-2.27
		l0.24-2.1l-0.74-1.48l0.61-2.03l-1.16-2.51l-1.9-2.13l-0.99-2.37l-0.95-1.15l-0.05-0.1c0.41-0.37,0.84-0.74,1.27-1.07
		c7.08-5.21,16.59-5.68,24.16-1.21c4.52,2.69,7.74,7.13,8.88,12.27c0.6,2.73,0.67,5.55,0.19,8.3l-14.38-2.33
		c0.27-1.51-0.08-3.07-0.98-4.32c-1.81-2.56-5.35-3.17-7.91-1.37c-0.03,0.02-0.06,0.05-0.1,0.07c-1.24,0.9-2.07,2.26-2.29,3.78
		h-0.09l-1.57,9.62c0.28-0.49,0.68-0.89,1.17-1.16c0.62-0.38,1.3-0.67,2.01-0.84c0.73-0.19,1.47-0.33,2.22-0.43
		c0.61-0.09,1.22-0.09,1.83,0c6.19,0.99,10.62,3.63,13.28,7.94c2.66,4.31,3.48,9.64,2.45,16L215.02,522.02z"/>
	<path id="path10" class="st10" d="M216.17,537.7l-1.11-14.15c-0.2-3.38,0.11-6.78,0.92-10.07c0.78-3.28,2.16-6.39,4.09-9.16
		c0.12-0.16,0.24-0.33,0.36-0.5l0.67,0.82l-0.05,2.42l-0.25,2.27l0.16,2.4l1.29,2.62l-0.29,2.09l1.54,2.06l-0.51,2.3l-0.8,1.55
		l1.42,2.35l-0.7,1.89l0.98,2.91l-1.35,1.78l-1.13,2.22l0.28,2.79l-2.52,1.8l-2.69,1.59c-0.11-0.64-0.21-1.29-0.29-1.95
		L216.17,537.7z"/>
	<path id="path12" class="st10" d="M315.81,497.46c-2.59,1.11-5.38,1.68-8.2,1.67c-2.16,0-4.31-0.33-6.37-0.98l0.06-0.16l2.81-0.5
		l1.55-1.01l0.54-1.64l2.68-1.09l0.63-1.79l1.64-1.48l1.3-1.02L315.81,497.46z"/>
	<path id="path14" class="st8" d="M96.87,497.72l-5.49,5.49v2.86l-1.32,0.63l-5.18,0.78l-0.68,1.66l-0.55,2.61l-0.41,2.04l-0.7,1.44
		l-2.53,1.62l-1.56,0.9l-0.93,2.28l0.59,2.15v0.81l-0.7,1.11l-1.15,1.82l-0.26,2.13l-2.22,1.32l2.44-0.63l0.38-1.78l0.66-0.74
		l1.34,1.85l-0.8-2l1.38-1.64l0.11-0.74l0.13-0.16l1.02-2.49l0.38-1.78l2.66-1.27l0.83-1.09l0.54-1.7l0.67-2.22l0.95-1.66l0.15-0.04
		l3.86-3.55l1.95-0.93v-0.12l4.84-4.84h4.8c0.3,0.53,0.98,0.72,1.52,0.41c0.53-0.3,0.72-0.98,0.41-1.52
		c-0.3-0.53-0.98-0.72-1.52-0.41c-0.17,0.1-0.31,0.24-0.41,0.41h-5.22l-4.38,4.38v-1.39l4.84-4.83h10.66l-5.18,7h-4.75
		c-0.31-0.53-0.98-0.7-1.51-0.4c-0.53,0.31-0.7,0.98-0.4,1.51c0.31,0.53,0.98,0.7,1.51,0.4c0.16-0.1,0.3-0.23,0.4-0.4h5.32
		l6.81-9.22L96.87,497.72z"/>
	<path id="path18" class="st10" d="M48.38,506.24c1.58,0.21,3.16-0.34,4.28-1.48l3.09-3.17l9.51,9.26l-3.09,3.17
		c-1.1,1.15-1.6,2.75-1.35,4.32c0.14,1.62,0.86,3.14,2.01,4.28c0.4,0.4,0.86,0.73,1.38,0.96c1.08,0.55,2.3,0.75,3.5,0.58
		c1.22-0.17,2.36-0.75,3.21-1.64c2.2-2.22,2.19-5.8-0.03-8.01c-0.03-0.03-0.05-0.05-0.08-0.08l10.82-11.1
		c1.26,1.22,2.36,2.6,3.28,4.1l-0.68,1.66l-0.55,2.61l-0.41,2.04l-0.7,1.44l-2.53,1.62l-1.56,0.9l-0.93,2.28l0.59,2.15v0.81
		l-0.7,1.11l-1.15,1.82l-0.26,2.13l-2.22,1.32l2.44-0.62l0.38-1.79l0.66-0.74l1.34,1.85l-0.8-2l1.38-1.64l0.11-0.74l0.13-0.16
		l1.02-2.49l0.38-1.78l2.66-1.27l0.83-1.09l0.54-1.7l0.67-2.22l0.95-1.66l0.15-0.04c0.83,2.26,1.27,4.64,1.3,7.05
		c0.04,2.73-0.45,5.45-1.44,8c-1.02,2.65-2.58,5.06-4.57,7.07c-1.61,1.67-3.49,3.06-5.55,4.11c-1.99,1.01-4.13,1.71-6.33,2.07
		c-2.19,0.36-4.43,0.36-6.62,0c-2.21-0.36-4.35-1.06-6.35-2.07c-1.89-0.96-3.62-2.21-5.13-3.7c-1.12-1.08-2.11-2.28-2.96-3.58
		l0.38-1.9l0.67-1.58l1.41-1.77l1.82-2.22l0.74-1.72l-1.13-1.7l-0.22-1.7l0.95-2.96l-0.95-2.5l-2.29-0.74l-0.13-3.06l-2.96-0.87
		l-0.41-1.48c0.48,0.14,0.98,0.23,1.48,0.27L48.38,506.24z"/>
	<path id="path20" class="st10" d="M265.69,520.21c1.81-1.58,2.88-3.84,2.96-6.24c0.05-2.3-0.43-4.57-1.38-6.66l14.53-4.84
		c0.44,1.15,0.95,2.69,1.55,4.6c0.62,2.14,0.9,4.36,0.85,6.59c-0.07,2.77-0.6,5.51-1.58,8.1c-1.32,3.35-3.29,6.42-5.79,9.01
		l-0.06,0.07c-3.14,3.45-6.33,5.85-9.56,7.2c-3.03,1.31-6.33,1.9-9.62,1.71c-3.26-0.22-6.44-1.11-9.35-2.61
		c-2.52-1.27-4.92-2.77-7.17-4.49l0.88-3l0.61-3.04l-2.12-1.84l-0.7-2.4l-0.23-2.22l-2.7-1.48l-0.78-1.87l-2.64-0.74l-0.48-1.68
		l-1.2-2.03l-2.53-0.45l-1.22-1.72l-2.73-1.03l-1.75-1.65l-1.37-1.82l-1.62-1.83l-1.05-0.15c-0.36-3.18-0.07-6.41,0.86-9.48
		c1.15-3.68,3.12-7.04,5.78-9.82l0.06-0.07c1.24-1.38,2.6-2.65,4.06-3.79l0.19,0.04l1.87,1.32l2.63,1.18l1.62,0.7l1.23,2.01
		l-0.62-2.43l-1.31-0.9l-2.32-1.38l-1.55-1.48l-0.24-0.08c0.69-0.46,1.4-0.87,2.14-1.24c2.41-1.24,5.01-2.05,7.69-2.41
		c2.44-0.32,4.92-0.21,7.32,0.32c2.24,0.49,4.43,1.21,6.53,2.15l-3.49,14.91c-1.14-0.5-2.33-0.89-3.55-1.17
		c-1.28-0.31-2.59-0.44-3.9-0.38c-1.29,0.06-2.55,0.33-3.75,0.82c-1.18,0.48-2.22,1.24-3.04,2.22c-1.86,2.25-2.7,5.18-2.3,8.07
		c0.46,3.03,2,5.78,4.34,7.76l9.88,9.02c2.22,2.16,5.14,3.45,8.22,3.63C260.72,523.38,263.59,522.29,265.69,520.21z"/>
	<path id="path26" class="st8" d="M369.98,495.39l-4.01,4.02v3.07l-1.42,0.95l-5.11,1.69l-1.6,1.48v3.13l-1.9,1.31l-1.69,1.67
		l0.59,2.18l-1.8,0.81l0.12,1.67l0,0l-1.35,0.57l-0.04,1.8l-0.91,2.63l-0.64,2.4l1.03-1.77l1.12-2.22l0.24-1.48l1.55-0.34l0.38,0.58
		l-0.85,2.73l-0.67,2.74l1.58,1.91l-0.84-1.88l1.03-2.72l1.22-2.72l-0.81-1.67l0.8-1.14l-0.4-1.87l1.88-1.35l2.09-1l0.18-2.81
		l1.87-1.31l0,0l3.52-4.07l1.91-1.27v-0.07l3.37-3.37h3.15c0.3,0.53,0.98,0.72,1.52,0.41c0.53-0.3,0.72-0.98,0.41-1.52
		c-0.3-0.53-0.98-0.72-1.52-0.41c-0.17,0.1-0.31,0.24-0.41,0.41h-3.61l-2.91,2.9v-1.6l3.37-3.36h7.4l-3.63,5.71h-3.07
		c-0.31-0.53-0.98-0.7-1.51-0.4c-0.53,0.31-0.7,0.98-0.4,1.51c0.31,0.53,0.98,0.7,1.51,0.4c0.16-0.1,0.3-0.23,0.4-0.4h3.7l5.03-7.93
		H369.98z"/>
	<path id="path34" class="st10" d="M316.9,539.67c-2.16,0.03-4.3-0.28-6.37-0.91c-2.14-0.67-4.16-1.67-6-2.96
		c-1.83-1.27-3.43-2.82-4.76-4.6c-1.33-1.8-2.38-3.8-3.09-5.92c-0.75-2.2-1.13-4.5-1.12-6.83c-0.03-2.84,0.53-5.65,1.64-8.25
		c2.17-5.09,6.23-9.14,11.32-11.31c2.62-1.12,5.45-1.69,8.3-1.67v15.49c-1.53-0.02-3.01,0.58-4.09,1.67
		c-1.11,1.05-1.73,2.53-1.7,4.06c-0.02,1.23,0.4,2.44,1.16,3.41c0.73,0.96,1.75,1.67,2.9,2.02c0.53,0.21,1.1,0.3,1.67,0.27
		c1.63-0.01,3.21-0.6,4.44-1.67c1.28-0.96,2.02-2.46,2.02-4.06v-4.44h13.28v4.44c0,1.59,0.75,3.09,2.03,4.05
		c1.24,1.06,2.81,1.65,4.44,1.66c0.56,0,1.13-0.09,1.66-0.28c1.15-0.37,2.17-1.08,2.9-2.04c0.76-0.97,1.16-2.18,1.15-3.41
		c-0.02-3.14-2.58-5.66-5.71-5.64c-0.01,0-0.02,0-0.02,0v-6.81l1.58-0.44l2.08-0.74l1.27-1.4h2.9l1.13-1.3l1.81-0.33l2.78,0.62
		l0.12-0.13c0.44,0.38,0.87,0.74,1.29,1.18c0.54,0.54,1.05,1.1,1.53,1.7l-1.6,1.48v3.13l-1.9,1.31l-1.69,1.67l0.59,2.18l-1.81,0.84
		l0.12,1.67l0,0l-1.35,0.57l-0.04,1.8l-0.91,2.63l-0.64,2.4l1.03-1.77l1.12-2.22l0.24-1.48l1.55-0.34l0.38,0.58l-0.85,2.73
		l-0.67,2.74l1.58,1.91l-0.84-1.88l1.03-2.72l1.22-2.72l-0.81-1.67l0.8-1.14l-0.4-1.87l1.88-1.35l2.09-1l0.18-2.81l1.87-1.32
		c0.3,0.56,0.58,1.13,0.84,1.72c1.12,2.6,1.69,5.41,1.67,8.25c0.02,2.32-0.35,4.63-1.1,6.83c-0.71,2.12-1.75,4.12-3.08,5.92
		c-1.32,1.79-2.92,3.35-4.74,4.62c-1.83,1.29-3.85,2.29-5.99,2.96c-2.03,0.63-4.14,0.95-6.27,0.93c-2.42,0.02-4.83-0.4-7.1-1.24
		c-2.18-0.8-4.21-1.97-6-3.44c-1.77,1.47-3.77,2.64-5.92,3.46c-2.25,0.85-4.64,1.27-7.05,1.26L316.9,539.67z"/>
	<path id="path66" class="st8" d="M281.81,543.92l-2.59-5.57c0.24-0.02,0.47-0.09,0.67-0.22c0.33-0.2,0.62-0.45,0.86-0.74
		c0.31-0.35,0.56-0.75,0.74-1.18c0.23-0.51,0.35-1.07,0.36-1.63c0.02-0.57-0.03-1.14-0.14-1.7c-0.11-0.51-0.32-1-0.63-1.42
		c-0.32-0.43-0.73-0.77-1.21-1c-0.61-0.28-1.28-0.43-1.95-0.43l-4.18-0.15l-0.45,13.74l3.1,0.11l0.16-4.44h0.04l1.69,4.52
		L281.81,543.92z M272,546.43l0.67-19.25l89.34,3.12l-0.67,19.25L272,546.43z M292.78,533.67l0.1-3.1l-8.4-0.29L284,543.99l8.4,0.29
		l0.11-3.09L287.2,541l0.08-2.22l3.9,0.13l0.11-3.09l-3.91-0.14l0.08-2.22L292.78,533.67z M303.63,541.22
		c0.04-0.62-0.06-1.25-0.3-1.83c-0.23-0.52-0.54-0.99-0.93-1.41c-0.41-0.43-0.86-0.81-1.35-1.13c-0.51-0.34-1.04-0.67-1.6-1.01
		c-0.3-0.23-0.59-0.48-0.87-0.74c-0.17-0.16-0.27-0.39-0.27-0.63c-0.01-0.27,0.11-0.52,0.33-0.68c0.2-0.14,0.44-0.22,0.68-0.21
		c0.22,0,0.43,0.06,0.61,0.17c0.17,0.1,0.32,0.23,0.44,0.38c0.12,0.14,0.22,0.3,0.29,0.47c0.06,0.15,0.11,0.3,0.16,0.46l2.75-0.98
		c-0.06-0.39-0.18-0.77-0.35-1.13c-0.19-0.39-0.46-0.74-0.78-1.04c-0.38-0.32-0.81-0.57-1.27-0.74c-0.56-0.22-1.16-0.34-1.77-0.35
		c-0.56-0.01-1.11,0.06-1.65,0.2c-0.51,0.13-0.99,0.35-1.42,0.65c-0.42,0.29-0.76,0.67-1.02,1.11c-0.27,0.48-0.41,1.02-0.42,1.57
		c-0.04,0.56,0.06,1.12,0.28,1.64c0.22,0.45,0.53,0.85,0.9,1.19c0.42,0.39,0.88,0.73,1.36,1.04c0.52,0.34,1.09,0.72,1.71,1.15
		c0.23,0.17,0.44,0.37,0.63,0.58c0.14,0.17,0.22,0.37,0.23,0.59c0.02,0.28-0.09,0.56-0.31,0.74c-0.18,0.14-0.4,0.23-0.63,0.25
		c-0.24,0.03-0.49-0.03-0.68-0.18c-0.2-0.14-0.38-0.31-0.53-0.5c-0.13-0.16-0.23-0.33-0.32-0.52c-0.07-0.16-0.1-0.24-0.07-0.26
		l-2.96,1.13c0.1,0.48,0.28,0.93,0.55,1.34c0.27,0.39,0.59,0.74,0.97,1.02c0.4,0.29,0.83,0.51,1.3,0.67
		c0.5,0.17,1.03,0.26,1.55,0.27c0.65,0.03,1.3-0.03,1.92-0.19c0.53-0.12,1.03-0.34,1.48-0.63c0.39-0.25,0.73-0.59,0.98-0.98
		c0.24-0.37,0.39-0.79,0.42-1.23L303.63,541.22z M316.11,536.42c0.01-0.62-0.09-1.24-0.29-1.84c-0.2-0.6-0.52-1.15-0.94-1.62
		c-0.47-0.54-1.04-0.97-1.68-1.27c-0.63-0.31-1.33-0.48-2.04-0.5l0,0c-0.7-0.03-1.4,0.09-2.06,0.35c-0.66,0.27-1.27,0.67-1.78,1.18
		c-0.45,0.45-0.8,0.99-1.05,1.58c-0.24,0.56-0.38,1.17-0.41,1.78l-0.11,3.21c-0.02,0.7,0.07,1.41,0.25,2.09
		c0.18,0.66,0.51,1.28,0.96,1.79c0.48,0.53,1.05,0.96,1.7,1.27c0.63,0.3,1.32,0.47,2.02,0.5l0,0c0.71,0.03,1.41-0.09,2.07-0.35
		c0.66-0.27,1.27-0.67,1.77-1.18c0.51-0.49,0.88-1.09,1.1-1.76c0.22-0.65,0.35-1.32,0.38-2.01L316.11,536.42z M328.06,531.78
		l-3.19-0.11l-0.27,8.02c-0.01,0.32-0.06,0.63-0.14,0.93c-0.07,0.27-0.18,0.52-0.34,0.74c-0.14,0.21-0.34,0.39-0.56,0.51
		c-0.51,0.24-1.1,0.22-1.58-0.06c-0.22-0.14-0.4-0.32-0.53-0.54c-0.14-0.24-0.24-0.51-0.3-0.78c-0.06-0.31-0.08-0.63-0.07-0.95
		l0.28-8.02l-3.19-0.11l-0.29,8.25c-0.02,0.7,0.04,1.41,0.2,2.09c0.14,0.65,0.41,1.26,0.79,1.79c0.39,0.53,0.89,0.96,1.48,1.26
		c0.71,0.34,1.49,0.51,2.27,0.5l0,0c0.73,0.05,1.47-0.05,2.15-0.3c0.6-0.23,1.14-0.59,1.58-1.07c0.44-0.5,0.78-1.08,1-1.71
		c0.25-0.72,0.38-1.46,0.4-2.22L328.06,531.78z M338.22,545.85l-2.59-5.57c0.24-0.02,0.47-0.09,0.67-0.22
		c0.33-0.2,0.62-0.45,0.87-0.74c0.3-0.36,0.55-0.76,0.74-1.18c0.23-0.51,0.35-1.07,0.36-1.63c0.02-0.57-0.03-1.13-0.15-1.69
		c-0.1-0.51-0.32-1-0.62-1.43c-0.32-0.43-0.74-0.77-1.22-1c-0.61-0.28-1.27-0.43-1.95-0.43l-4.18-0.15l-0.48,13.71l3.09,0.11
		l0.16-4.44h0.04l1.69,4.52L338.22,545.85z M345.45,543.06c-0.59-0.05-1.12-0.35-1.48-0.82c-0.37-0.5-0.55-1.11-0.51-1.72l0.15-2.61
		c0-0.61,0.22-1.2,0.62-1.67c0.39-0.44,0.95-0.69,1.53-0.7c0.26,0,0.51,0.06,0.74,0.18c0.23,0.12,0.44,0.27,0.61,0.46
		c0.18,0.19,0.33,0.41,0.45,0.64c0.11,0.22,0.21,0.46,0.27,0.7l2.72-1.4c-0.12-0.44-0.3-0.87-0.52-1.27
		c-0.23-0.43-0.53-0.83-0.9-1.15c-0.4-0.36-0.86-0.66-1.36-0.87c-0.61-0.24-1.27-0.37-1.92-0.38l0,0c-0.76-0.04-1.52,0.1-2.22,0.39
		c-0.63,0.27-1.18,0.68-1.64,1.18c-0.45,0.51-0.79,1.1-1.02,1.73c-0.24,0.64-0.38,1.31-0.41,1.98l-0.1,2.84
		c0.01,0.7,0.1,1.39,0.26,2.07c0.15,0.64,0.43,1.23,0.81,1.76c0.39,0.52,0.9,0.95,1.48,1.24c0.73,0.34,1.53,0.52,2.33,0.52l0,0
		c0.72,0.05,1.44-0.05,2.12-0.29c0.52-0.19,1.01-0.46,1.44-0.81c0.34-0.28,0.64-0.61,0.89-0.98c0.21-0.34,0.38-0.61,0.5-0.83
		l-2.62-1.59c-0.19,0.42-0.48,0.79-0.84,1.08c-0.37,0.3-0.86,0.43-1.33,0.36L345.45,543.06z M360.63,536.04l0.11-3.1l-8.41-0.29
		l-0.47,13.71l8.4,0.29l0.11-3.09l-5.31-0.19l0.07-2.22l3.91,0.14l0.1-3.09l-3.9-0.14l0.07-2.22L360.63,536.04z"/>
	<path id="path68-2" class="st8" d="M259.7,548.92l0.27-3.09l-8.38-0.74l-1.19,13.67l8.37,0.74l0.27-3.08l-5.29-0.47l0.19-2.22
		l3.89,0.34l0.27-3.09l-3.89-0.34l0.19-2.22L259.7,548.92z M248.98,561.51l1.68-19.21l111.67,9.76l-1.68,19.25L248.98,561.51z
		 M272.32,546.91l-3.45-0.3l-2.08,3.45l-1.48-3.75l-3.45-0.3l3.07,7.15l-4.23,6.52l3.46,0.3l2.08-3.45l1.44,3.76l3.46,0.3
		l-3.09-7.13L272.32,546.91z M280.51,547.65l-0.46,5.29l-3.66-0.33l0.46-5.29l-3.09-0.27l-1.19,13.67l3.09,0.27l0.46-5.29l3.66,0.32
		l-0.46,5.29l3.09,0.27l1.19-13.67L280.51,547.65z M292.36,558.83l0.92,3.7l3.5,0.31l-2.77-14.03l-4.12-0.36l-5.18,13.33l3.51,0.31
		l1.52-3.49L292.36,558.83z M310.29,550.22l-3.18-0.27l-0.7,7.99c-0.03,0.31-0.09,0.62-0.19,0.93c-0.09,0.27-0.21,0.52-0.38,0.74
		c-0.16,0.2-0.36,0.36-0.59,0.47c-0.25,0.12-0.53,0.16-0.81,0.13c-0.26-0.02-0.52-0.11-0.74-0.26c-0.21-0.15-0.38-0.35-0.5-0.58
		c-0.14-0.25-0.22-0.52-0.26-0.8c-0.03-0.31-0.03-0.63,0-0.94l0.7-7.99l-3.18-0.27l-0.74,8.22c-0.07,0.7-0.04,1.41,0.08,2.1
		c0.11,0.65,0.35,1.27,0.7,1.83c0.36,0.55,0.84,1.01,1.41,1.33c0.68,0.38,1.44,0.59,2.22,0.62l0,0c0.73,0.09,1.46,0.02,2.16-0.19
		c0.61-0.2,1.17-0.53,1.63-0.98c0.47-0.48,0.84-1.04,1.09-1.66c0.29-0.71,0.47-1.46,0.52-2.22L310.29,550.22z M320.44,561.43
		c0.07-0.62-0.01-1.25-0.21-1.84c-0.2-0.54-0.48-1.04-0.85-1.48c-0.38-0.45-0.82-0.86-1.3-1.21c-0.49-0.36-1.01-0.74-1.54-1.1
		c-0.29-0.25-0.57-0.51-0.83-0.78c-0.33-0.35-0.31-0.91,0.05-1.23c0.03-0.02,0.05-0.05,0.08-0.07c0.2-0.13,0.45-0.19,0.69-0.17
		c0.22,0.02,0.42,0.08,0.61,0.2c0.16,0.11,0.31,0.24,0.42,0.4c0.12,0.15,0.21,0.31,0.27,0.49c0.05,0.15,0.1,0.3,0.13,0.46l2.79-0.83
		c-0.03-0.39-0.13-0.78-0.29-1.14c-0.18-0.4-0.43-0.77-0.74-1.07c-0.36-0.35-0.77-0.63-1.22-0.84c-0.55-0.25-1.14-0.39-1.75-0.44
		c-0.56-0.04-1.11,0-1.66,0.11c-0.52,0.11-1.02,0.3-1.48,0.58c-0.43,0.27-0.8,0.63-1.07,1.06c-0.3,0.46-0.47,1-0.5,1.55
		c-0.07,0.56,0,1.12,0.19,1.64c0.2,0.46,0.48,0.88,0.84,1.24c0.4,0.41,0.84,0.78,1.31,1.11c0.49,0.36,1.04,0.77,1.64,1.24
		c0.23,0.18,0.43,0.38,0.6,0.61c0.13,0.17,0.2,0.38,0.2,0.6c0.02,0.29-0.11,0.57-0.35,0.74c-0.19,0.13-0.41,0.21-0.64,0.22
		c-0.24,0.02-0.49-0.06-0.67-0.22c-0.19-0.15-0.36-0.32-0.5-0.52c-0.12-0.17-0.22-0.35-0.3-0.54c-0.06-0.16-0.08-0.25-0.06-0.26
		l-3.04,0.97c0.08,0.5,0.26,0.99,0.53,1.42c0.24,0.41,0.55,0.77,0.92,1.07c0.38,0.31,0.8,0.56,1.26,0.74
		c0.49,0.2,1.01,0.32,1.53,0.36c0.64,0.07,1.3,0.04,1.93-0.08c0.52-0.1,1.02-0.28,1.48-0.56c0.41-0.23,0.76-0.55,1.03-0.93
		c0.26-0.36,0.42-0.77,0.49-1.21L320.44,561.43z M331.95,552.13l-9.3-0.81l-0.27,3.09l3.1,0.27l-0.95,10.62l3.09,0.27l0.93-10.63
		l3.1,0.27L331.95,552.13z M335.66,566.2l1.19-13.67l-3.09-0.27l-1.19,13.67L335.66,566.2z M348.79,558.68
		c0.04-0.62-0.02-1.25-0.19-1.85c-0.17-0.61-0.46-1.17-0.86-1.67c-0.44-0.56-0.98-1.02-1.61-1.36c-0.62-0.34-1.31-0.55-2.01-0.6l0,0
		c-0.7-0.06-1.41,0.02-2.07,0.24c-0.67,0.24-1.3,0.6-1.84,1.07c-0.93,0.86-1.51,2.02-1.64,3.28l-0.28,3.2
		c-0.05,0.7-0.01,1.4,0.13,2.09c0.15,0.67,0.44,1.3,0.87,1.84c0.45,0.55,1.01,1.02,1.64,1.36c0.61,0.34,1.29,0.54,1.99,0.6l0,0
		c0.71,0.07,1.42-0.01,2.09-0.24c0.68-0.23,1.3-0.6,1.82-1.08c0.53-0.46,0.94-1.04,1.2-1.7c0.25-0.64,0.42-1.3,0.48-1.98
		L348.79,558.68z M357.81,554.39l-0.59,6.71l-3.06-7.03l-3.15-0.27l-1.19,13.67l3.27,0.29l0.58-6.72l3.09,7.04l3.12,0.27l1.19-13.67
		L357.81,554.39z"/>
	<path class="st0" d="M584.67,153.87c-2.38-5.18-6.18-10.26-7.61-12.17c-0.18-0.24-0.31-0.41-0.38-0.51s-0.1-0.13-0.18-0.24
		c-3.6-5.02-5.55-11.04-5.56-17.22c0-10.78-0.84-30.83-2.22-44.42c-0.57-5.71-1.12-11.39-1.57-15.95c-0.43-4.4-0.67-6.88-0.82-8.34
		c0.98-1.1,1.57-2.51,1.66-3.98c0-0.74-0.19-1.81-1.28-7.23c-0.1-0.51-0.21-1.07-0.33-1.63c0.46-0.34,0.83-0.77,1.09-1.27
		c0.85-1.64,0.9-7.8-0.56-10.94c-1.7-3.7-5.49-6-9.9-6h-16.95c-4.44,0-8.2,2.29-9.9,6c-1.48,3.16-1.4,9.31-0.54,10.96
		c0.26,0.49,0.63,0.92,1.08,1.26c-0.11,0.54-0.22,1.1-0.33,1.59c-1.1,5.44-1.29,6.53-1.29,7.26c0.09,1.48,0.68,2.88,1.67,3.99
		c-0.14,1.35-0.36,3.61-0.74,7.45c-0.46,4.7-1.05,10.75-1.66,16.83c-1.35,13.64-2.22,33.68-2.22,44.42
		c-0.01,6.18-1.95,12.21-5.56,17.23l-0.17,0.24l-0.38,0.5c-2.94,3.79-5.49,7.87-7.62,12.17c-2.81,6.1-2.47,14.53-2.41,15.7
		c0,3.74,0.24,102.94,0.24,108.95c-0.35,14.43,1.61,21.65,6.74,24.88c6.09,3.97,25.67,4.28,31.54,4.28s25.46-0.31,31.54-4.28
		c5.14-3.24,7.09-10.46,6.74-24.88c0-6.28,0.24-105.2,0.24-108.94C587.16,168.4,587.47,159.97,584.67,153.87z M579.75,169.25
		c0,0.07,0,0.15,0,0.22c0,1.04-0.25,103.19-0.25,109.11v0.09c0.33,13.4-1.62,17.48-3.32,18.51l-0.08,0.05
		c-2.22,1.48-12.67,3.09-27.52,3.09s-25.27-1.59-27.52-3.09l-0.08-0.05c-1.7-1.07-3.66-5.14-3.33-18.51v-0.09
		c0-5.62-0.24-108.08-0.24-109.11c0-0.07,0-0.15,0-0.22c-0.13-2.08-0.08-8.34,1.74-12.29c2.06-4.44,5.52-9.1,6.82-10.84
		c0.28-0.38,0.47-0.64,0.55-0.74l0.08-0.1c4.5-6.28,6.93-13.8,6.95-21.53c0-10.56,0.83-30.27,2.16-43.68
		c0.61-6.09,1.2-12.14,1.66-16.85c0.41-4.19,0.74-7.83,0.85-8.6c0.16-1.28-0.27-2.56-1.16-3.49c-0.11-0.13-0.3-0.37-0.47-0.6
		c0.22-1.25,0.7-3.6,1.04-5.28c1.23-6.1,1.23-6.1,0.81-7.21c-0.35-0.94-1.08-1.7-2.01-2.09c-0.02-0.99,0.13-1.98,0.42-2.92
		c0.58-1.27,2.11-1.72,3.23-1.72h16.97c1.18,0,2.65,0.45,3.23,1.72c0.31,0.93,0.47,1.91,0.47,2.89c-0.92,0.39-1.64,1.13-2,2.06
		c-0.44,1.13-0.44,1.13,0.8,7.28c0.33,1.67,0.81,4,1.03,5.24c-0.17,0.23-0.36,0.47-0.47,0.61c-0.9,0.92-1.32,2.21-1.15,3.49
		c0.09,0.82,0.48,4.85,0.93,9.48c0.45,4.63,1,10.25,1.57,15.97c1.34,13.32,2.16,33.08,2.16,43.68c0.02,7.73,2.45,15.25,6.96,21.53
		l0.06,0.08c0.09,0.13,0.28,0.39,0.56,0.74c1.3,1.74,4.77,6.36,6.82,10.84C579.81,160.86,579.86,167.15,579.75,169.25z"/>
	<path class="st0" d="M525.43,171.92c2.01-0.14,3.54-1.87,3.43-3.89c-0.07-1.32-0.04-5.26,1.06-7.65c1.25-2.49,2.74-4.84,4.44-7.04
		l0.41-0.56c0.94-1.81,0.24-4.05-1.58-4.99c-1.51-0.78-3.35-0.44-4.48,0.83c-0.04,0.07-0.13,0.18-0.24,0.32
		c-2.01,2.61-3.77,5.41-5.23,8.37c-2.07,4.51-1.75,10.52-1.71,11.19c0.12,1.93,1.72,3.43,3.66,3.43L525.43,171.92z"/>
	<path class="st0" d="M575.03,274.79c0-0.41,0-1.41,0-2.92c-0.05-4.63-0.16-14.28-0.16-26.83c0-2.04-1.66-3.7-3.7-3.7h-44.31
		c-2.04,0-3.7,1.66-3.7,3.7c0,12.55-0.11,22.21-0.17,26.83c0,1.52,0,2.51,0,2.92v0.78c0,12.33,0,16.94,4.17,18.23
		c2.96,0.92,12.44,1.38,20.05,1.41h3.63c7.58-0.04,17.09-0.5,20.03-1.41c4.17-1.29,4.17-5.92,4.16-18.23V274.79z"/>
	<path class="st0" d="M675.14,153.87c-2.38-5.18-6.18-10.26-7.61-12.17c-0.18-0.24-0.31-0.41-0.38-0.51s-0.1-0.13-0.18-0.24
		c-3.6-5.02-5.55-11.04-5.56-17.22c0-10.78-0.84-30.83-2.22-44.42c-0.57-5.71-1.12-11.39-1.57-15.95c-0.43-4.4-0.67-6.88-0.82-8.34
		c0.98-1.1,1.57-2.51,1.66-3.98c0-0.74-0.19-1.81-1.28-7.23l-0.33-1.63c0.46-0.34,0.83-0.77,1.09-1.27c0.85-1.64,0.9-7.8-0.56-10.94
		c-1.7-3.7-5.49-6-9.9-6h-16.95c-4.44,0-8.2,2.29-9.9,6c-1.48,3.16-1.4,9.31-0.54,10.96c0.26,0.49,0.63,0.92,1.08,1.26
		c-0.11,0.54-0.22,1.1-0.33,1.59c-1.1,5.44-1.29,6.53-1.29,7.26c0.09,1.48,0.67,2.88,1.66,3.99c-0.14,1.35-0.36,3.61-0.74,7.45
		c-0.46,4.7-1.05,10.75-1.66,16.83c-1.35,13.64-2.22,33.68-2.22,44.42c-0.01,6.18-1.95,12.21-5.56,17.23l-0.17,0.24l-0.38,0.5
		c-2.94,3.79-5.49,7.87-7.62,12.17c-2.81,6.1-2.47,14.53-2.41,15.7c0,3.74,0.24,102.94,0.24,108.95
		c-0.35,14.43,1.61,21.65,6.74,24.88c6.09,3.97,25.67,4.28,31.54,4.28s25.46-0.31,31.54-4.28c5.14-3.24,7.09-10.46,6.74-24.88
		c0-6.28,0.24-105.2,0.24-108.94C677.6,168.4,677.94,159.97,675.14,153.87z M670.21,169.25c0,0.07,0,0.15,0,0.22
		c0,1.04-0.25,103.19-0.25,109.11v0.09c0.33,13.4-1.62,17.48-3.32,18.51l-0.08,0.05c-2.22,1.48-12.67,3.09-27.52,3.09
		s-25.27-1.59-27.52-3.09l-0.08-0.05c-1.7-1.07-3.66-5.14-3.33-18.51v-0.09c0-5.62-0.24-108.08-0.24-109.11c0-0.07,0-0.15,0-0.22
		c-0.13-2.08-0.08-8.34,1.74-12.29c2.06-4.44,5.52-9.1,6.82-10.84c0.28-0.38,0.47-0.64,0.55-0.74l0.08-0.1
		c4.5-6.28,6.93-13.8,6.95-21.53c0-10.56,0.83-30.27,2.16-43.68c0.61-6.09,1.2-12.14,1.66-16.85c0.41-4.19,0.74-7.83,0.85-8.6
		c0.16-1.28-0.27-2.56-1.16-3.49c-0.11-0.13-0.3-0.37-0.47-0.6c0.22-1.25,0.7-3.6,1.04-5.28c1.23-6.1,1.23-6.1,0.81-7.21
		c-0.35-0.94-1.08-1.7-2.01-2.09c0-0.98,0.15-1.96,0.46-2.89c0.58-1.27,2.11-1.72,3.24-1.72h16.97c1.18,0,2.65,0.45,3.23,1.72
		c0.31,0.93,0.47,1.91,0.47,2.89c-0.92,0.39-1.64,1.13-2,2.06c-0.44,1.13-0.44,1.13,0.8,7.28c0.33,1.67,0.81,4,1.03,5.24
		c-0.17,0.23-0.36,0.47-0.47,0.61c-0.9,0.92-1.32,2.21-1.15,3.49c0.09,0.82,0.48,4.85,0.93,9.48c0.45,4.63,1,10.25,1.57,15.97
		c1.34,13.32,2.16,33.08,2.16,43.68c0.02,7.73,2.45,15.25,6.96,21.53l0.06,0.08c0.09,0.13,0.28,0.39,0.56,0.74
		c1.3,1.74,4.77,6.36,6.82,10.84C670.27,160.86,670.33,167.15,670.21,169.25z"/>
	<path class="st0" d="M615.9,171.92c2.01-0.14,3.54-1.87,3.43-3.89c-0.07-1.32-0.04-5.26,1.06-7.65c1.25-2.49,2.74-4.84,4.44-7.04
		l0.41-0.56c0.94-1.81,0.24-4.05-1.58-4.99c-1.51-0.78-3.35-0.44-4.48,0.83c-0.04,0.07-0.13,0.18-0.24,0.32
		c-2.01,2.61-3.77,5.41-5.23,8.37c-2.07,4.51-1.75,10.52-1.71,11.19c0.12,1.93,1.72,3.43,3.66,3.43L615.9,171.92z"/>
	<path class="st0" d="M665.5,274.79c0-0.41,0-1.41,0-2.92c-0.05-4.63-0.16-14.28-0.16-26.83c0-2.04-1.66-3.7-3.7-3.7h-44.31
		c-2.04,0-3.7,1.66-3.7,3.7c0,12.55-0.11,22.21-0.17,26.83c0,1.52,0,2.51,0,2.92v0.78c0,12.33,0,16.94,4.17,18.23
		c2.96,0.92,12.44,1.38,20.05,1.41h3.63c7.58-0.04,17.09-0.5,20.03-1.41c4.17-1.29,4.17-5.92,4.16-18.23V274.79z"/>
	<path class="st0" d="M765.61,153.87c-2.38-5.18-6.18-10.26-7.61-12.17c-0.18-0.24-0.31-0.41-0.38-0.51s-0.1-0.13-0.18-0.24
		c-3.6-5.02-5.55-11.04-5.56-17.22c0-10.78-0.84-30.83-2.22-44.42c-0.57-5.71-1.13-11.39-1.57-15.95c-0.43-4.4-0.67-6.88-0.82-8.34
		c0.98-1.1,1.57-2.51,1.66-3.98c0-0.74-0.19-1.81-1.28-7.23l-0.33-1.63c0.46-0.34,0.83-0.77,1.09-1.27c0.85-1.64,0.9-7.8-0.56-10.94
		c-1.7-3.7-5.49-6-9.9-6H721c-4.44,0-8.2,2.29-9.9,6c-1.48,3.16-1.4,9.31-0.54,10.96c0.26,0.49,0.63,0.92,1.08,1.26
		c-0.11,0.54-0.22,1.1-0.33,1.59c-1.1,5.44-1.29,6.53-1.29,7.26c0.09,1.48,0.68,2.88,1.67,3.99c-0.14,1.35-0.36,3.61-0.74,7.45
		c-0.46,4.7-1.05,10.75-1.66,16.83c-1.35,13.64-2.22,33.68-2.22,44.42c-0.01,6.18-1.95,12.21-5.56,17.23l-0.17,0.24l-0.38,0.5
		c-2.94,3.79-5.49,7.87-7.62,12.17c-2.81,6.1-2.47,14.53-2.41,15.7c0,3.74,0.24,102.94,0.24,108.95
		c-0.35,14.43,1.61,21.65,6.74,24.88c6.09,3.97,25.67,4.28,31.54,4.28c5.87,0,25.46-0.31,31.54-4.28
		c5.14-3.24,7.09-10.46,6.74-24.88c0-6.28,0.24-105.2,0.24-108.94C768.07,168.4,768.41,159.97,765.61,153.87z M760.68,169.25
		c0,0.07,0,0.15,0,0.22c0,1.04-0.25,103.19-0.25,109.11v0.09c0.33,13.4-1.62,17.48-3.32,18.51l-0.08,0.05
		c-2.22,1.48-12.67,3.09-27.52,3.09c-14.85,0-25.27-1.59-27.52-3.09l-0.08-0.05c-1.7-1.07-3.66-5.14-3.33-18.51v-0.09
		c0-5.62-0.24-108.08-0.24-109.11c0-0.07,0-0.15,0-0.22c-0.13-2.08-0.08-8.34,1.74-12.29c2.06-4.44,5.52-9.1,6.82-10.84
		c0.28-0.38,0.47-0.64,0.55-0.74l0.08-0.1c4.5-6.28,6.93-13.8,6.95-21.53c0-10.56,0.83-30.27,2.16-43.68
		c0.61-6.09,1.2-12.14,1.66-16.85c0.41-4.19,0.74-7.83,0.85-8.6c0.16-1.28-0.27-2.56-1.16-3.49c-0.11-0.13-0.3-0.37-0.47-0.6
		c0.22-1.25,0.7-3.6,1.03-5.28c1.24-6.1,1.24-6.1,0.81-7.21c-0.36-0.94-1.09-1.69-2.01-2.09c0-0.98,0.15-1.96,0.46-2.89
		c0.58-1.27,2.11-1.72,3.24-1.72h16.97c1.18,0,2.65,0.45,3.23,1.72c0.31,0.93,0.47,1.91,0.47,2.89c-0.92,0.39-1.64,1.13-2,2.06
		c-0.44,1.13-0.44,1.13,0.8,7.28c0.33,1.67,0.81,4,1.03,5.24c-0.17,0.23-0.36,0.47-0.47,0.61c-0.9,0.92-1.32,2.21-1.15,3.49
		c0.09,0.82,0.48,4.85,0.93,9.48c0.45,4.63,1,10.25,1.57,15.97c1.34,13.32,2.16,33.08,2.16,43.68c0.02,7.73,2.45,15.25,6.96,21.53
		l0.06,0.08c0.09,0.13,0.28,0.39,0.56,0.74c1.3,1.74,4.77,6.36,6.82,10.84C760.74,160.86,760.8,167.15,760.68,169.25z"/>
	<path class="st0" d="M706.34,171.92c2.01-0.14,3.54-1.87,3.43-3.89c-0.07-1.32-0.04-5.26,1.06-7.65c1.25-2.49,2.74-4.84,4.44-7.04
		l0.41-0.56c0.94-1.81,0.24-4.05-1.58-4.99c-1.51-0.78-3.35-0.44-4.48,0.83c-0.04,0.07-0.13,0.18-0.24,0.32
		c-2.01,2.61-3.77,5.41-5.23,8.37c-2.07,4.51-1.75,10.52-1.71,11.19c0.12,1.93,1.72,3.43,3.66,3.43L706.34,171.92z"/>
	<path class="st0" d="M755.94,274.79c0-0.41,0-1.41,0-2.92c-0.05-4.63-0.16-14.28-0.16-26.83c0-2.04-1.66-3.7-3.7-3.7h-44.25
		c-2.04,0-3.7,1.66-3.7,3.7c0,12.55-0.11,22.21-0.17,26.83c0,1.52,0,2.51,0,2.92v0.78c0,12.33,0,16.94,4.17,18.23
		c2.96,0.92,12.44,1.38,20.05,1.41h3.63c7.58-0.04,17.09-0.5,20.03-1.41c4.17-1.29,4.16-5.92,4.16-18.23v-0.78H755.94z"/>
	<path id="path66-2" class="st8" d="M587.16,199.25l-4.84-10.41c0.45-0.03,0.88-0.17,1.26-0.41c0.61-0.35,1.15-0.8,1.61-1.33
		c0.59-0.66,1.06-1.41,1.42-2.22c0.43-0.96,0.66-2,0.67-3.05c0.04-1.06-0.05-2.12-0.27-3.16c-0.2-0.96-0.59-1.86-1.16-2.66
		c-0.6-0.8-1.38-1.44-2.28-1.87c-1.14-0.52-2.39-0.8-3.64-0.8l-7.82-0.27l-0.9,25.61l5.79,0.2l0.29-8.33h0.07l3.15,8.45
		L587.16,199.25z M568.83,203.95l1.26-36.01l166.88,5.83l-1.26,36.01L568.83,203.95z M607.65,180.12l0.2-5.78l-15.69-0.55
		l-0.9,25.61l15.69,0.55l0.2-5.78l-9.91-0.35l0.15-4.13l7.3,0.26l0.2-5.78l-7.3-0.26l0.15-4.13L607.65,180.12z M627.9,194.23
		c0.07-1.17-0.13-2.34-0.57-3.42c-0.43-0.97-1.01-1.85-1.73-2.63c-0.76-0.8-1.61-1.51-2.53-2.12c-0.95-0.64-1.95-1.27-2.96-1.9
		c-0.57-0.43-1.11-0.89-1.62-1.38c-0.33-0.3-0.51-0.73-0.5-1.18c-0.02-0.5,0.21-0.97,0.61-1.27c0.37-0.27,0.82-0.41,1.27-0.39
		c0.4,0.01,0.79,0.12,1.14,0.32c0.32,0.19,0.6,0.42,0.84,0.7c0.23,0.26,0.41,0.56,0.54,0.88c0.11,0.28,0.21,0.56,0.28,0.85
		l5.13-1.82c-0.11-0.73-0.33-1.44-0.65-2.1c-0.36-0.74-0.86-1.39-1.48-1.93c-0.7-0.62-1.5-1.1-2.36-1.44
		c-1.05-0.41-2.17-0.63-3.3-0.65c-1.04-0.02-2.08,0.11-3.09,0.38c-0.95,0.24-1.85,0.65-2.66,1.21c-0.78,0.54-1.43,1.25-1.9,2.07
		c-0.51,0.9-0.78,1.92-0.79,2.96c-0.07,1.05,0.11,2.1,0.53,3.06c0.42,0.84,0.99,1.59,1.68,2.22c0.79,0.72,1.65,1.36,2.55,1.93
		c0.99,0.62,2.05,1.34,3.18,2.16c0.44,0.31,0.84,0.68,1.19,1.1c0.26,0.31,0.41,0.69,0.42,1.1c0.05,0.53-0.17,1.05-0.58,1.39
		c-0.34,0.27-0.74,0.43-1.17,0.48c-0.45,0.05-0.91-0.07-1.28-0.34c-0.37-0.26-0.71-0.57-0.98-0.93c-0.23-0.3-0.43-0.62-0.6-0.96
		c-0.14-0.3-0.19-0.47-0.14-0.49l-5.59,2.11c0.18,0.89,0.53,1.74,1.04,2.5c0.49,0.74,1.1,1.38,1.81,1.91
		c0.74,0.54,1.55,0.96,2.42,1.25c0.93,0.32,1.91,0.49,2.89,0.52c1.21,0.06,2.42-0.06,3.6-0.34c0.98-0.23,1.9-0.63,2.75-1.18
		c0.74-0.48,1.37-1.11,1.85-1.86c0.45-0.69,0.72-1.48,0.79-2.29L627.9,194.23z M651.23,185.29c0.02-1.16-0.16-2.32-0.53-3.43
		c-0.38-1.12-0.97-2.15-1.75-3.03c-0.88-1-1.94-1.81-3.14-2.38c-1.19-0.57-2.49-0.89-3.81-0.93h-0.04
		c-1.32-0.06-2.63,0.17-3.85,0.66c-1.23,0.5-2.35,1.23-3.31,2.15c-1.65,1.69-2.62,3.93-2.74,6.28l-0.21,5.99
		c-0.04,1.32,0.12,2.64,0.47,3.91c0.34,1.23,0.95,2.38,1.79,3.34c0.9,0.99,1.97,1.8,3.18,2.38c1.18,0.57,2.47,0.89,3.78,0.93l0,0
		c1.32,0.06,2.64-0.17,3.86-0.66c1.24-0.5,2.37-1.26,3.3-2.22c0.94-0.92,1.64-2.04,2.06-3.29c0.42-1.21,0.65-2.47,0.7-3.75
		L651.23,185.29z M673.6,176.59l-5.92-0.21l-0.52,14.98c-0.02,0.59-0.1,1.18-0.25,1.75c-0.13,0.51-0.34,0.99-0.64,1.43
		c-0.27,0.39-0.63,0.72-1.05,0.94c-0.46,0.24-0.97,0.34-1.48,0.31c-0.52,0-1.03-0.14-1.48-0.41c-0.4-0.26-0.74-0.61-1-1.02
		c-0.27-0.46-0.46-0.96-0.55-1.48c-0.11-0.58-0.15-1.17-0.13-1.76l0.52-14.98l-5.92-0.21l-0.54,15.42
		c-0.05,1.31,0.07,2.63,0.36,3.91c0.26,1.2,0.77,2.34,1.48,3.35c0.72,1,1.67,1.8,2.78,2.35c1.32,0.63,2.77,0.95,4.24,0.94l0,0
		c1.36,0.1,2.73-0.09,4.01-0.56c1.13-0.43,2.14-1.12,2.96-2.01c0.83-0.93,1.46-2.01,1.87-3.19c0.46-1.34,0.71-2.73,0.74-4.15
		L673.6,176.59z M692.56,202.93l-4.84-10.4c0.45-0.04,0.88-0.18,1.26-0.42c0.61-0.35,1.15-0.8,1.61-1.33
		c0.58-0.67,1.06-1.41,1.42-2.22c0.42-0.96,0.65-1.99,0.67-3.04c0.04-1.06-0.05-2.13-0.27-3.17c-0.2-0.96-0.6-1.86-1.17-2.66
		c-0.6-0.8-1.38-1.44-2.28-1.87c-1.14-0.52-2.38-0.8-3.64-0.8l-7.81-0.27l-0.9,25.61l5.78,0.2l0.29-8.33h0.07l3.15,8.45
		L692.56,202.93z M706.08,197.75c-1.1-0.1-2.1-0.65-2.77-1.52c-0.69-0.93-1.03-2.07-0.95-3.23l0.17-4.99c0-1.14,0.41-2.25,1.16-3.11
		c0.73-0.81,1.76-1.29,2.85-1.3c0.48,0,0.95,0.11,1.37,0.33c0.43,0.22,0.81,0.51,1.14,0.87c0.34,0.36,0.62,0.77,0.84,1.21
		c0.21,0.41,0.39,0.84,0.53,1.29l5.09-2.61c-0.25-0.82-0.57-1.62-0.97-2.38c-0.43-0.81-1-1.54-1.69-2.16
		c-0.75-0.68-1.61-1.22-2.54-1.61c-1.14-0.46-2.36-0.71-3.6-0.74l0,0c-1.44-0.08-2.87,0.17-4.19,0.74
		c-1.17,0.51-2.22,1.27-3.06,2.22c-0.83,0.94-1.48,2.04-1.9,3.22c-0.43,1.19-0.68,2.44-0.74,3.7l-0.19,5.3
		c0.02,1.3,0.18,2.59,0.49,3.86c0.28,1.19,0.8,2.31,1.52,3.29c0.74,0.98,1.71,1.78,2.81,2.32c1.37,0.64,2.85,0.97,4.36,0.98l0,0
		c1.34,0.09,2.69-0.09,3.97-0.53c0.97-0.34,1.88-0.84,2.69-1.48c0.65-0.52,1.21-1.14,1.67-1.84c0.4-0.63,0.72-1.15,0.93-1.55
		l-4.89-2.96c-0.36,0.78-0.9,1.47-1.57,2.01c-0.7,0.56-1.6,0.81-2.49,0.67L706.08,197.75z M734.36,184.57l0.2-5.79l-15.69-0.55
		l-0.9,25.61l15.69,0.55l0.2-5.78l-9.91-0.35l0.15-4.13l7.29,0.26l0.21-5.79l-7.3-0.25l0.14-4.13L734.36,184.57z"/>
	<path id="path68-3" class="st8" d="M545.89,208.61l0.51-5.77l-15.65-1.37L528.53,227l15.65,1.37l0.5-5.77l-9.88-0.87l0.36-4.12
		l7.27,0.64l0.51-5.77l-7.28-0.64l0.36-4.12L545.89,208.61z M525.85,232.13l3.14-35.89l208.59,18.25l-3.11,35.9L525.85,232.13z
		 M569.45,204.86l-6.45-0.57l-3.88,6.44l-2.71-7.01l-6.45-0.57l5.74,13.37l-7.98,12.16l6.45,0.56l3.89-6.43l2.7,7.01l6.46,0.56
		l-5.74-13.32L569.45,204.86z M584.76,206.2l-0.87,9.88l-6.83-0.6l0.86-9.88l-5.76-0.5l-2.22,25.52l5.77,0.5l0.86-9.88l6.83,0.59
		l-0.87,9.88l5.77,0.5l2.22-25.52L584.76,206.2z M606.89,227.09l1.71,6.92l6.55,0.58l-5.25-26.18l-7.68-0.66l-9.71,24.87l6.55,0.58
		l2.86-6.53L606.89,227.09z M640.35,211.03l-5.92-0.52l-1.3,14.92c-0.05,0.59-0.16,1.17-0.34,1.73c-0.17,0.5-0.42,0.97-0.74,1.39
		c-0.29,0.38-0.66,0.68-1.1,0.89c-0.46,0.21-0.98,0.29-1.48,0.23c-0.53-0.02-1.04-0.19-1.48-0.49c-0.39-0.28-0.72-0.64-0.95-1.07
		c-0.24-0.46-0.4-0.96-0.47-1.48c-0.07-0.59-0.07-1.18,0-1.76l1.31-14.92l-5.92-0.52l-1.38,15.32c-0.12,1.31-0.06,2.62,0.16,3.92
		c0.2,1.22,0.65,2.38,1.31,3.42c0.67,1.03,1.58,1.89,2.65,2.49c1.29,0.7,2.72,1.1,4.18,1.16l0,0c1.36,0.17,2.74,0.05,4.04-0.36
		c1.15-0.36,2.19-0.99,3.05-1.84c0.87-0.89,1.56-1.94,2.03-3.09c0.53-1.3,0.86-2.68,0.98-4.08L640.35,211.03z M659.3,231.98
		c0.13-1.16-0.01-2.34-0.39-3.44c-0.38-0.99-0.92-1.9-1.6-2.71c-0.71-0.85-1.52-1.6-2.41-2.26c-0.92-0.67-1.88-1.36-2.88-2.04
		c-0.54-0.47-1.06-0.96-1.55-1.48c-0.31-0.32-0.47-0.75-0.43-1.19c0-0.5,0.26-0.97,0.68-1.24c0.38-0.25,0.84-0.36,1.29-0.32
		c0.4,0.03,0.79,0.16,1.13,0.37c0.3,0.2,0.57,0.45,0.8,0.74c0.21,0.27,0.37,0.58,0.49,0.9c0.1,0.28,0.18,0.58,0.24,0.87l5.22-1.55
		c-0.07-0.74-0.25-1.46-0.54-2.14c-0.32-0.75-0.78-1.43-1.36-2c-0.67-0.65-1.44-1.18-2.29-1.57c-1.03-0.47-2.14-0.74-3.26-0.82
		c-1.04-0.07-2.08,0.01-3.09,0.21c-0.96,0.2-1.89,0.56-2.72,1.07c-0.8,0.51-1.48,1.18-2,1.97c-0.56,0.87-0.88,1.87-0.95,2.89
		c-0.13,1.04,0,2.09,0.37,3.07c0.37,0.86,0.9,1.65,1.56,2.32c0.75,0.76,1.57,1.45,2.45,2.07c0.94,0.67,1.96,1.44,3.06,2.32
		c0.43,0.34,0.81,0.74,1.13,1.18c0.24,0.32,0.37,0.71,0.36,1.12c0.02,0.53-0.22,1.04-0.65,1.36c-0.35,0.25-0.76,0.39-1.19,0.41
		c-0.46,0.03-0.91-0.12-1.27-0.41c-0.36-0.28-0.67-0.61-0.93-0.98c-0.22-0.31-0.41-0.65-0.56-1c-0.12-0.31-0.16-0.47-0.11-0.5
		l-5.69,1.82c0.14,0.9,0.45,1.76,0.9,2.55c0.45,0.76,1.03,1.44,1.71,2c0.71,0.58,1.5,1.05,2.35,1.38c0.91,0.36,1.88,0.59,2.86,0.67
		c1.21,0.12,2.42,0.07,3.61-0.16c0.99-0.18,1.94-0.53,2.81-1.03c0.75-0.44,1.4-1.03,1.92-1.73c0.48-0.67,0.79-1.44,0.9-2.26
		L659.3,231.98z M680.76,214.6l-17.36-1.52l-0.5,5.77l5.8,0.51l-1.72,19.77l5.77,0.5l1.72-19.77l5.8,0.5L680.76,214.6z
		 M687.69,240.94l2.22-25.53l-5.76-0.5l-2.22,25.52L687.69,240.94z M712.26,226.83c0.08-1.16-0.04-2.33-0.36-3.45
		c-0.31-1.14-0.85-2.2-1.59-3.12c-0.83-1.04-1.85-1.91-3.01-2.55c-1.16-0.63-2.44-1.01-3.75-1.12h-0.04
		c-1.31-0.12-2.63,0.03-3.88,0.46c-1.26,0.43-2.42,1.1-3.42,1.98c-0.88,0.8-1.6,1.77-2.12,2.84c-0.52,1.03-0.84,2.14-0.95,3.29
		l-0.52,5.97c-0.1,1.32-0.01,2.64,0.26,3.93c0.28,1.25,0.83,2.42,1.62,3.43c0.84,1.04,1.87,1.9,3.04,2.55
		c1.14,0.63,2.4,1.01,3.7,1.12h0.04c1.32,0.12,2.64-0.04,3.89-0.46c1.26-0.43,2.42-1.11,3.41-2.01c0.98-0.87,1.75-1.95,2.22-3.18
		c0.47-1.18,0.78-2.43,0.9-3.7L712.26,226.83z M729.11,218.83l-1.1,12.52l-5.73-13.12l-5.87-0.51l-2.22,25.52l6.11,0.53l1.1-12.58
		l5.76,13.15l5.83,0.51l2.22-25.52L729.11,218.83z"/>
	<path id="path14-2" class="st8" d="M637.01,346.43l-8.73,8.73v4.51l-2.1,1l-8.25,1.24l-1.09,2.64l-0.87,4.15l-0.67,3.24l-1.11,2.29
		l-4.03,2.58l-2.49,1.42l-1.48,3.63l0.94,3.42v1.29l-1.1,1.78l-1.82,2.89l-0.41,3.4l-3.47,2.1l3.87-1l0.61-2.84l1.04-1.21l2.13,2.96
		l-1.27-3.18l2.22-2.62l0.18-1.12l0.21-0.25l1.62-3.95l0.61-2.84l4.23-2.03l1.31-1.74l0.86-2.69l1.07-3.6l1.48-2.64l0.24-0.07
		l6.14-5.65l3.09-1.48v-0.19l7.71-7.7h7.65c0.49,0.84,1.56,1.13,2.41,0.64c0.84-0.49,1.13-1.56,0.64-2.41
		c-0.49-0.84-1.56-1.13-2.41-0.64c-0.27,0.15-0.49,0.38-0.64,0.64h-8.33l-6.97,6.97v-2.22l7.71-7.71h16.96l-8.23,11.16h-7.57
		c-0.48-0.84-1.56-1.14-2.41-0.65c-0.84,0.48-1.14,1.56-0.65,2.41c0.48,0.84,1.56,1.14,2.41,0.65c0.27-0.16,0.5-0.38,0.65-0.65h8.46
		l10.86-14.65H637.01z"/>
	<path id="path22-2" class="st8" d="M444.68,355.48l10.71,17.9h8.65c0.49,0.84,1.56,1.13,2.41,0.64c0.84-0.49,1.13-1.56,0.64-2.41
		c-0.49-0.84-1.56-1.13-2.41-0.64c-0.27,0.15-0.49,0.38-0.64,0.64h-7.63l-8.62-14.34h17.45l10.93,10.93v2.22l-10.2-10.2h-8.52
		c-0.49-0.84-1.56-1.13-2.41-0.64c-0.84,0.49-1.13,1.56-0.64,2.41c0.49,0.84,1.56,1.13,2.41,0.64c0.27-0.15,0.49-0.38,0.64-0.64h7.8
		l11.1,11.1l2.54,3.55l1.23,2.69l0.3,0.07l2.96,2.09l4.19,1.88l2.58,1.1l1.95,3.21l-0.98-3.86l-2.09-1.44l-3.7-2.22l-2.48-2.42
		l-0.36-0.13l-2.17-2.02l-2.41-3.37v-4.78l-11.96-11.96L444.68,355.48z"/>
	<path id="path26-2" class="st8" d="M779.82,323.17l-6.39,6.39v4.88l-2.26,1.48l-8.14,2.69l-2.54,2.35v4.97l-3.03,2.09l-2.68,2.65
		l0.94,3.47l-2.89,1.35l0.19,2.65l0.04,0.05l-2.14,0.9l-0.06,2.86l-1.48,4.06l-0.99,3.84l1.64-2.81l1.78-3.56l0.38-2.37l2.47-0.54
		l0.61,0.91l-1.35,4.35l-1.06,4.36l2.52,3.04l-1.35-2.96l1.64-4.35l1.94-4.32l-1.28-2.6l1.27-1.81l-0.64-2.96l2.96-2.15l3.34-1.59
		l0.28-4.49l2.96-2.08l0,0l5.6-6.48l3.04-2.04v-0.1l5.35-5.35h5.04c0.49,0.84,1.56,1.13,2.41,0.64c0.84-0.49,1.13-1.56,0.64-2.41
		c-0.49-0.84-1.56-1.13-2.41-0.64c-0.27,0.15-0.49,0.38-0.64,0.64h-5.74l-4.63,4.63v-2.5l5.35-5.35h11.84l-5.77,9.1h-4.89
		c-0.49-0.84-1.56-1.13-2.41-0.64c-0.84,0.49-1.13,1.56-0.64,2.41c0.49,0.84,1.56,1.13,2.41,0.64c0.27-0.15,0.49-0.38,0.64-0.64
		h5.86l8.01-12.62L779.82,323.17z"/>
	<path class="st10" d="M621.11,373.47l82.65-30.83l0.84,1.29l-1.48,2.15l-1.64,1.1l-1.07,1.39l-1.09,2.26l-1.57,1.12l-1.81,0.46
		h-1.48l-0.93,1.48l-2.35,0.66l-0.64,0.87l-2.78,1.04l0,0l-64.09,23.9l-0.21,0.07c-2.04,0.62-7.99,2.96-11.1,6.01l-0.42,0.46h-0.07
		l-1.48,1.48l-1.27,0.74l-1.48-0.68l-1.52,0.94l-1.9,0.24l-1.07,0.8l-1.42-0.41l-1.72,1.48l-1.3,0.81c2.47-3.92,5.31-7.6,8.48-10.98
		c4.79-4.84,12.94-7.53,14.07-7.8L621.11,373.47z"/>
	<path class="st10" d="M736.59,332.75c14.66-0.33,21.99,1.69,25.26,6.93c4.01,6.2,4.23,26.13,4.2,32.07
		c-0.02,5.94-0.42,25.91-4.49,32.04c-3.31,5.18-10.66,7.11-25.32,6.66c-6.11,0-106.96-0.24-110.75-0.25
		c-1.2,0.06-9.76,0.36-15.95-2.52c-4.36-2.19-8.49-4.8-12.34-7.8l-0.51-0.39l-0.24-0.17c-5.09-3.69-11.2-5.71-17.49-5.75
		c-10.91-0.05-31.28-1.03-45.16-2.47l-17.1-1.76c-3.92-0.4-6.2-0.63-7.57-0.78c-1.13,1-2.56,1.59-4.07,1.67
		c-0.74,0-1.85-0.18-7.4-1.34l-1.62-0.33c-0.33,0.47-0.77,0.86-1.27,1.13c-1.61,0.91-7.9,0.91-11.1-0.57
		c-3.83-1.87-6.21-5.83-6.06-10.09l0.07-17.26c-0.11-4.27,2.3-8.2,6.14-10.04c3.18-1.48,9.45-1.38,11.1-0.51
		c0.51,0.27,0.96,0.66,1.3,1.14l1.64-0.33c5.52-1.07,6.62-1.27,7.35-1.27c1.5,0.1,2.93,0.7,4.05,1.71c1.48-0.15,4.01-0.38,8.48-0.8
		l16.22-1.52c13.81-1.35,34.2-2.12,45.16-2.07c6.3,0.01,12.45-1.95,17.57-5.61l0.24-0.17l0.56-0.34l0.58-0.44l1.48-0.3l2.12-0.74
		l1.18,0.89l1.31-0.38l1.86,0.46l1.75-0.34l1.18,1.18l1.44-0.21l1.94-0.82l0.06,0.06c-3.7,1.87-7.21,4.08-10.5,6.6l-0.78,0.57
		l-0.09,0.05c-6.4,4.56-14.06,7-21.91,6.99c-10.79-0.05-30.8,0.69-44.42,1.99c-5.82,0.56-11.6,1.1-16.24,1.52l-9.62,0.91
		c-1.29,0.18-2.6-0.25-3.54-1.15l-0.61-0.49c-1.27,0.22-3.65,0.69-5.34,1.02c-6.26,1.23-6.26,1.23-7.4,0.78
		c-0.95-0.37-1.7-1.11-2.09-2.04c-1.01-0.01-2.01,0.15-2.96,0.47c-1.17,0.66-1.86,1.93-1.78,3.27l-0.07,17.26
		c-0.08,1.34,0.58,2.61,1.73,3.3c0.95,0.32,1.95,0.48,2.96,0.48c0.4-0.94,1.17-1.67,2.13-2.04c1.14-0.43,1.14-0.43,7.34,0.85
		c1.7,0.36,4.09,0.84,5.36,1.08l0.61-0.47c0.95-0.9,2.26-1.32,3.56-1.13l8.74,0.9l17.12,1.77c13.63,1.42,33.67,2.35,44.42,2.4
		c7.85,0.05,15.49,2.56,21.85,7.17l0.12,0.07l0.74,0.56c3.43,2.67,7.11,5.01,10.99,6.99c4,1.87,10.36,1.94,12.48,1.81h0.23
		c1.05,0,105.24,0.23,110.92,0.25h0.13c13.62,0.37,17.72-1.6,18.86-3.32v-0.09c1.53-2.29,3.19-12.86,3.26-27.96
		c0.07-15.1-1.48-25.72-3.01-27.99v-0.08c-1.07-1.77-5.18-3.77-18.83-3.49h-0.09c-2.34,0-19.43-0.13-39.54-0.26l0.91-0.59l2.43,0.22
		l1.41-1.07l1.39,0.51l1.85,0.22l1.87-0.5l1.81-1.72l1.48-0.92l1.92-0.44l2.17-1.48l-0.32-1.48l22.53,0.14L736.59,332.75z"/>
	<path class="st10" d="M693.5,403L693.5,403z"/>
	<path class="st10" d="M604.18,391.33c1.05-1.78,3.35-2.37,5.13-1.31c0,0,0,0,0.01,0l0.59,0.37c0.36,0.24,0.74,0.48,1.08,0.74
		l0.45,0.65v1.64l0.5,2.09l0.22,1.1l0.67,1.3l-1.07-1.07l-1.48,0.61l-1.38-1.25l-2.18,0.44l-1.53-0.64l-0.19,0.14
		C603.58,394.98,603.22,392.92,604.18,391.33z"/>
	<path class="st10" d="M629.27,398.73c0.11,1.97-1.34,3.68-3.3,3.89c-0.66,0.08-6.79,0.74-11.43-1.15
		c-3.07-1.34-6.01-2.97-8.76-4.87l-0.33-0.22c-0.16-0.1-0.31-0.21-0.45-0.33l0.19-0.14l1.48,0.65l2.22-0.42l1.36,1.27l1.48-0.59
		l1.06,1.08l-0.66-1.3l-0.21-1.11l-0.47-2.1v-1.64l-0.44-0.66c2,1.32,4.11,2.47,6.31,3.44c2.48,0.94,6.5,0.81,7.84,0.67
		c2.03-0.24,3.87,1.2,4.12,3.23c0,0.02,0,0.04,0.01,0.06C629.27,398.56,629.27,398.65,629.27,398.73L629.27,398.73z"/>
	<path class="st10" d="M731.1,350.67c12.53,0,17.23,0,18.55,4.2c0.41,1.63,0.68,3.29,0.8,4.96l-1.96,0.33l-1.35,1.15l-2.09-1.3
		l-1.72,0.1l-1.17,1.33l-1.76-0.51l-1.9-0.19l-1.27-0.07l-1.27-0.09l-1.65,1.48l-1.33-1.35l-1.56,0.21l-1.72,0.83h-2.07l-1.6,0.44
		l-2-1.66l-2.34,1.22l-2.22-1.42l-2.42,0.42l-2.17-0.9l-1.21-1.64l-2.01-0.06l-1.48-1.57l-1.22-1.44l0.47-2.7l0.15-1.52
		c8.11-0.07,14.31-0.17,17.77-0.18h2.96L731.1,350.67z"/>
	<path class="st10" d="M751.11,375.23v3.7c0,7.78-0.49,17.44-1.42,20.44c-1.31,4.23-6.04,4.23-18.51,4.25h-3.75
		c-4.69-0.05-14.49-0.16-27.25-0.13c-2.05,0-3.72-1.65-3.75-3.7l-0.06-45.05c0.02-2.03,1.67-3.68,3.7-3.7c3.38,0,6.55,0,9.48-0.04
		l-0.15,1.52l-0.47,2.7l1.22,1.44l1.48,1.57l2.01,0.06l1.21,1.64l2.17,0.9l2.41-0.42l2.22,1.42l2.34-1.21l1.99,1.65l1.61-0.44h2.07
		l1.71-0.82l1.57-0.21l1.33,1.35l1.65-1.48l1.27,0.08l1.26,0.07l1.9,0.19l1.76,0.52l1.17-1.33l1.72-0.1l2.1,1.3l1.35-1.15l1.96-0.33
		c0.43,4.32,0.66,10.28,0.67,15.4L751.11,375.23z"/>
	<path id="path44-2" class="st9" d="M580.05,361.31"/>
	<path id="path48-2" class="st9" d="M580.05,361.31"/>
	<path id="path52-2" class="st9" d="M580.05,361.31"/>
	<path id="path58-2" class="st9" d="M580.05,361.31"/>
	<path id="path62-2" class="st9" d="M580.05,361.31"/>
	<path id="path68-4" class="st9" d="M580.05,361.31"/>
	<path id="path1742-2" class="st9" d="M580.05,361.31"/>
	<path id="path1746-2" class="st9" d="M580.05,361.31"/>
	<path id="path1750-2" class="st9" d="M580.05,361.31"/>
	<path id="path1754-2" class="st9" d="M580.05,361.31"/>
	<path id="path1758-2" class="st9" d="M580.05,361.31"/>
	<path id="path1762-2" class="st9" d="M580.05,361.31"/>
	<path id="path1766-2" class="st9" d="M580.05,361.31"/>
	<path id="path1770-2" class="st9" d="M580.05,361.31"/>
	<path id="path1774-2" class="st9" d="M580.05,361.31"/>
	<path id="path1778-2" class="st9" d="M580.05,361.31"/>
	<path id="path1782-2" class="st9" d="M580.05,361.31"/>
	<path id="path1786-2" class="st9" d="M580.05,361.31"/>
	<path id="path1790-2" class="st9" d="M580.05,361.31"/>
	<path id="path1794-2" class="st9" d="M580.05,361.31"/>
	<path id="path1800-2" class="st9" d="M580.05,361.31"/>
	<path id="path2233-2" class="st9" d="M580.05,361.31"/>
	<path id="path2237-2" class="st9" d="M580.05,361.31"/>
	<path id="path2241-2" class="st9" d="M580.05,361.31"/>
	<path id="path2245-2" class="st9" d="M580.05,361.31"/>
	<path id="path2249-2" class="st9" d="M580.05,361.31"/>
	<path id="path2253-2" class="st9" d="M580.05,361.31"/>
	<path id="path2257-2" class="st9" d="M580.05,361.31"/>
	<path id="path2261-2" class="st9" d="M580.05,361.31"/>
	<path id="path2265-2" class="st9" d="M580.05,361.31"/>
	<path id="path2269-2" class="st9" d="M580.05,361.31"/>
	<path id="path2273-2" class="st9" d="M580.05,361.31"/>
	<path id="path2277-2" class="st9" d="M580.05,361.31"/>
	<path id="path2281-2" class="st9" d="M580.05,361.31"/>
	<path id="path2285-2" class="st9" d="M580.05,361.31"/>
	<path id="path2291-2" class="st9" d="M580.05,361.31"/>
	<path id="path3260-2" class="st9" d="M580.05,361.31"/>
	<path id="path3266-2" class="st9" d="M580.05,361.31"/>
	<path id="path3314-2" class="st9" d="M580.05,361.31"/>
	<path id="path3320-2" class="st9" d="M580.05,361.31"/>
	<path id="path3340-2" class="st9" d="M580.05,361.31"/>
	<path id="path7713-2" class="st9" d="M580.05,361.31"/>
	<path id="path7719-2" class="st9" d="M580.05,361.31"/>
	<path id="path7725-2" class="st9" d="M580.05,361.31"/>
	<path id="path7773-2" class="st9" d="M580.05,361.31"/>
	<path id="path8214-2" class="st9" d="M580.05,361.31"/>
	<path id="path8218-2" class="st9" d="M580.05,361.31"/>
	<path id="path8222-2" class="st9" d="M580.05,361.31"/>
	<path id="path8226-2" class="st9" d="M580.05,361.31"/>
	<path id="path8230-2" class="st9" d="M580.05,361.31"/>
	<path id="path8234-2" class="st9" d="M580.05,361.31"/>
	<path id="path8238-2" class="st9" d="M580.05,361.31"/>
	<path id="path8242-2" class="st9" d="M580.05,361.31"/>
	<path id="path8246-2" class="st9" d="M580.05,361.31"/>
	<path id="path8250-2" class="st9" d="M580.05,361.31"/>
	<path id="path8254-2" class="st9" d="M580.05,361.31"/>
	<path id="path8258-2" class="st9" d="M580.05,361.31"/>
	<path id="path8262-2" class="st9" d="M580.05,361.31"/>
	<path id="path8266-2" class="st9" d="M580.05,361.31"/>
	<path id="path8272-2" class="st9" d="M580.05,361.31"/>
	<path id="path36-6" class="st11" d="M642.82,373.15l-1.62,30.88l104.44,5.48l-134.05,8.06l1.86,30.86l179.36-10.79l-1.85-30.87
		l-6.42,0.39l1.39-26.52L642.82,373.15z M644.48,377.59l6.66,0.35c1.08,0.02,2.14,0.28,3.11,0.74c0.77,0.39,1.43,0.95,1.93,1.64
		c0.48,0.69,0.8,1.48,0.95,2.3c0.17,0.89,0.24,1.81,0.19,2.72c-0.03,0.9-0.24,1.78-0.62,2.6c-0.32,0.68-0.75,1.32-1.26,1.87
		c-0.4,0.45-0.87,0.82-1.4,1.11c-0.33,0.2-0.7,0.32-1.09,0.34l4,9l-5.69-0.3l-2.58-7.3h-0.06l-0.38,7.14l-4.96-0.26L644.48,377.59z
		 M661.66,378.49l13.47,0.74l-0.26,4.96l-8.5-0.48l-0.19,3.55l6.26,0.33l-0.26,4.96l-6.26-0.33l-0.19,3.54l8.5,0.45l-0.26,4.96
		l-13.46-0.74L661.66,378.49z M685.2,379.74h0.34c0.97,0.03,1.93,0.24,2.83,0.61c0.74,0.31,1.41,0.74,2.01,1.27
		c0.51,0.47,0.93,1.04,1.23,1.67c0.27,0.58,0.45,1.19,0.53,1.82l-4.44,1.48c-0.06-0.25-0.14-0.5-0.23-0.74
		c-0.11-0.27-0.26-0.52-0.45-0.74c-0.2-0.24-0.44-0.45-0.7-0.61c-0.3-0.18-0.63-0.28-0.98-0.29c-0.39-0.02-0.78,0.09-1.1,0.31
		c-0.61,0.47-0.73,1.35-0.26,1.96c0.04,0.05,0.07,0.09,0.12,0.13c0.43,0.43,0.89,0.83,1.37,1.21c0.88,0.56,1.72,1.11,2.53,1.67
		c0.78,0.53,1.5,1.16,2.14,1.86c0.62,0.67,1.12,1.44,1.48,2.28c0.37,0.94,0.52,1.95,0.44,2.96v0.41c-0.08,0.7-0.34,1.38-0.74,1.96
		c-0.42,0.62-0.96,1.15-1.59,1.55c-0.73,0.46-1.53,0.79-2.38,0.97c-1.01,0.23-2.05,0.31-3.09,0.24c-0.85-0.04-1.68-0.2-2.48-0.48
		c-0.74-0.27-1.43-0.64-2.06-1.12c-0.6-0.46-1.12-1.03-1.52-1.67c-0.41-0.66-0.7-1.39-0.84-2.15l4.83-1.73
		c-0.04,0-0.01,0.14,0.11,0.42c0.13,0.3,0.3,0.58,0.5,0.84c0.23,0.31,0.51,0.59,0.83,0.81c0.31,0.24,0.7,0.35,1.1,0.31
		c0.37-0.03,0.71-0.17,1.01-0.39c0.36-0.28,0.56-0.73,0.53-1.18c-0.01-0.35-0.13-0.69-0.36-0.95c-0.29-0.36-0.63-0.68-1-0.95
		c-0.99-0.72-1.89-1.35-2.69-1.9c-0.77-0.5-1.49-1.07-2.16-1.7c-0.59-0.55-1.07-1.21-1.41-1.94c-0.35-0.83-0.49-1.73-0.41-2.63
		c0.03-0.88,0.29-1.74,0.74-2.5c0.42-0.7,0.98-1.3,1.66-1.75c0.7-0.47,1.48-0.8,2.3-1c0.76-0.19,1.53-0.28,2.31-0.28L685.2,379.74z
		 M703.94,380.72h0.43l0,0c1.13,0.05,2.24,0.34,3.26,0.85c1.02,0.52,1.92,1.23,2.66,2.09c0.67,0.76,1.17,1.65,1.48,2.62
		c0.31,0.96,0.45,1.96,0.41,2.96l-0.27,5.14c-0.06,1.1-0.28,2.18-0.66,3.21c-0.37,1.06-0.99,2.02-1.81,2.79
		c-0.82,0.8-1.79,1.43-2.86,1.83c-1.06,0.4-2.19,0.57-3.32,0.51l0,0c-1.12-0.06-2.22-0.35-3.23-0.85c-1.02-0.52-1.94-1.23-2.69-2.09
		c-0.71-0.84-1.21-1.83-1.48-2.89c-0.27-1.1-0.39-2.23-0.34-3.36l0.27-5.14c0.15-2.02,1.01-3.91,2.44-5.34
		c0.83-0.78,1.81-1.4,2.88-1.81c0.92-0.35,1.9-0.52,2.88-0.52L703.94,380.72z M715.65,381.29l5.11,0.27l-0.67,12.84
		c-0.03,0.51,0,1.02,0.08,1.52c0.07,0.45,0.23,0.88,0.45,1.27c0.21,0.36,0.49,0.67,0.84,0.89c0.38,0.23,0.81,0.36,1.25,0.38
		c0.44,0.03,0.89-0.05,1.29-0.24c0.36-0.19,0.68-0.46,0.91-0.79c0.26-0.37,0.45-0.78,0.57-1.21c0.14-0.48,0.22-0.98,0.24-1.48
		l0.67-12.84l5.11,0.27l-0.7,13.22c-0.05,1.21-0.28,2.41-0.7,3.55c-0.36,1.01-0.92,1.93-1.65,2.71c-0.71,0.75-1.58,1.32-2.55,1.67
		c-1.11,0.38-2.29,0.53-3.46,0.43l0,0c-1.26-0.01-2.5-0.3-3.63-0.87c-0.94-0.49-1.74-1.2-2.35-2.07c-0.6-0.87-1.02-1.85-1.23-2.89
		c-0.23-1.1-0.31-2.23-0.25-3.36L715.65,381.29z M734.86,382.33l6.71,0.35c1.08,0.02,2.14,0.27,3.11,0.74
		c0.76,0.39,1.42,0.95,1.92,1.64c0.48,0.69,0.81,1.47,0.96,2.29c0.17,0.9,0.24,1.81,0.19,2.72c-0.03,0.9-0.24,1.78-0.63,2.6
		c-0.32,0.69-0.74,1.32-1.25,1.87c-0.4,0.45-0.88,0.82-1.41,1.11c-0.33,0.2-0.7,0.32-1.08,0.34l4,9l-5.69-0.3l-2.58-7.3h-0.06
		l-0.37,7.14l-4.96-0.27L734.86,382.33z M759.37,383.62h0.5l0,0c1.06,0.03,2.1,0.25,3.07,0.67c0.8,0.34,1.53,0.82,2.16,1.41
		c0.57,0.54,1.05,1.18,1.41,1.88c0.34,0.65,0.61,1.34,0.8,2.05l-4.44,2.17c-0.11-0.38-0.25-0.76-0.43-1.12
		c-0.19-0.38-0.42-0.73-0.7-1.04c-0.28-0.3-0.6-0.55-0.96-0.74c-0.36-0.19-0.76-0.29-1.17-0.3c-0.94,0-1.83,0.39-2.47,1.07
		c-0.66,0.73-1.02,1.67-1.04,2.65l-0.23,4.28c-0.09,0.99,0.17,1.97,0.74,2.78c0.56,0.76,1.41,1.25,2.35,1.35
		c0.76,0.13,1.54-0.07,2.15-0.54c0.58-0.46,1.05-1.04,1.38-1.7l4.15,2.62c-0.2,0.34-0.47,0.74-0.83,1.32
		c-0.41,0.59-0.91,1.11-1.48,1.55c-0.7,0.54-1.49,0.97-2.33,1.26c-1.1,0.35-2.26,0.49-3.41,0.39l0,0c-1.28-0.03-2.55-0.34-3.7-0.9
		c-0.94-0.48-1.76-1.18-2.38-2.04c-0.61-0.85-1.03-1.82-1.25-2.85c-0.25-1.09-0.37-2.2-0.36-3.32l0.24-4.55
		c0.09-1.09,0.34-2.16,0.74-3.18c0.38-1.01,0.95-1.94,1.68-2.74c0.74-0.8,1.65-1.44,2.66-1.86c0.99-0.41,2.04-0.6,3.11-0.58
		L759.37,383.62z M770.32,384.19l13.47,0.7l-0.26,4.96l-8.51-0.44l-0.19,3.54l6.26,0.33l-0.27,4.95l-6.26-0.33l-0.19,3.55l8.5,0.44
		l-0.26,4.96l-13.46-0.74L770.32,384.19z M789.56,411.21l1.32,21.95l-5.02,0.3l-6.55-10.45l0.65,10.8l-5.25,0.32l-1.33-21.96
		l5.05-0.3l6.52,10.42l-0.65-10.77L789.56,411.21z M762.76,412.84c0.99-0.01,1.97,0.16,2.9,0.5c1.07,0.4,2.04,1,2.87,1.78
		c0.74,0.69,1.33,1.51,1.75,2.44c0.41,0.91,0.66,1.89,0.74,2.89l0.31,5.14c0.06,1.1-0.03,2.2-0.29,3.26
		c-0.25,1.09-0.76,2.11-1.48,2.96c-0.72,0.89-1.62,1.62-2.64,2.14c-1.01,0.52-2.12,0.82-3.25,0.88l0,0c-1.12,0.07-2.25-0.1-3.3-0.48
		c-1.07-0.4-2.06-1.01-2.9-1.78c-0.8-0.75-1.42-1.67-1.81-2.7c-0.4-1.06-0.65-2.17-0.74-3.3l-0.31-5.14
		c-0.05-0.99,0.08-1.97,0.39-2.91c0.3-0.98,0.79-1.89,1.44-2.68c0.74-0.87,1.64-1.59,2.66-2.11c1-0.52,2.11-0.82,3.23-0.88l0,0
		L762.76,412.84L762.76,412.84z M750.64,413.58l1.33,21.95l-4.96,0.3l-1.32-21.96L750.64,413.58z M742.76,414.05l0.3,4.96l-4.98,0.3
		l1.02,17.03l-4.96,0.3l-1.02-17.03l-4.98,0.3l-0.3-4.96L742.76,414.05z M719.15,415.53c0.71,0,1.41,0.1,2.09,0.3
		c0.77,0.22,1.49,0.57,2.14,1.04c0.56,0.41,1.04,0.93,1.41,1.52c0.34,0.54,0.59,1.13,0.74,1.75l-4.23,1.98
		c-0.08-0.26-0.18-0.5-0.3-0.74c-0.14-0.27-0.32-0.52-0.53-0.74c-0.22-0.21-0.47-0.39-0.74-0.53c-0.31-0.14-0.66-0.21-1-0.18
		c-0.39,0.02-0.76,0.17-1.05,0.43c-0.56,0.54-0.58,1.42-0.04,1.98c0.04,0.04,0.09,0.09,0.14,0.12c0.47,0.38,0.97,0.73,1.48,1.05
		c0.93,0.45,1.84,0.91,2.7,1.38c0.84,0.44,1.62,0.98,2.33,1.61c0.68,0.6,1.26,1.31,1.7,2.1c0.46,0.89,0.71,1.87,0.74,2.87v0.41
		c0.01,0.71-0.16,1.4-0.48,2.03c-0.35,0.66-0.82,1.25-1.41,1.72c-0.67,0.53-1.42,0.95-2.22,1.23c-0.98,0.34-2.01,0.54-3.05,0.58
		c-0.84,0.06-1.69-0.01-2.51-0.21c-0.77-0.18-1.5-0.47-2.18-0.87c-0.65-0.39-1.23-0.89-1.7-1.48c-0.48-0.61-0.85-1.31-1.08-2.05
		l4.6-2.27c-0.04,0,0,0.16,0.16,0.41c0.17,0.27,0.37,0.51,0.59,0.74c0.27,0.29,0.58,0.54,0.92,0.74c0.34,0.2,0.74,0.26,1.12,0.19
		c0.36-0.08,0.69-0.25,0.96-0.5c0.33-0.32,0.47-0.79,0.38-1.24c-0.05-0.35-0.2-0.67-0.45-0.91c-0.33-0.32-0.7-0.6-1.1-0.84
		c-1.04-0.61-2.01-1.14-2.89-1.58c-0.82-0.42-1.61-0.92-2.34-1.48c-0.64-0.49-1.19-1.09-1.61-1.77c-0.44-0.79-0.68-1.67-0.7-2.57
		c-0.07-0.88,0.08-1.76,0.44-2.57c0.35-0.74,0.85-1.4,1.48-1.92c0.64-0.55,1.38-0.97,2.17-1.26c0.84-0.31,1.72-0.5,2.61-0.57
		c0.27,0,0.53,0,0.78,0L719.15,415.53z M707.98,416.14l0.79,13.21c0.09,1.21-0.01,2.43-0.3,3.61c-0.25,1.04-0.7,2.01-1.33,2.87
		c-0.62,0.83-1.43,1.5-2.36,1.95c-1.06,0.51-2.21,0.78-3.38,0.81l0,0c-1.25,0.13-2.52-0.03-3.7-0.46c-0.99-0.38-1.87-1-2.56-1.79
		c-0.69-0.8-1.22-1.73-1.55-2.73c-0.35-1.07-0.56-2.18-0.62-3.31l-0.8-13.22l5.11-0.3l0.74,12.84c0.03,0.5,0.11,1,0.25,1.48
		c0.12,0.43,0.32,0.84,0.59,1.21c0.25,0.33,0.57,0.6,0.93,0.78c0.4,0.19,0.85,0.27,1.29,0.24c0.44-0.02,0.88-0.15,1.25-0.38
		c0.34-0.23,0.62-0.54,0.82-0.9c0.21-0.39,0.36-0.82,0.43-1.27c0.08-0.49,0.1-0.99,0.07-1.48l-0.74-12.84L707.98,416.14z
		 M681.8,417.74l7.76,21.56l-5.64,0.34l-2.32-5.66l-4.28,0.26l-1.6,5.92l-5.63,0.34l5.12-22.34L681.8,417.74z M665.13,418.72
		l1.33,21.95l-4.96,0.3l-0.51-8.5l-5.87,0.35l0.51,8.5l-4.96,0.3l-1.33-21.97l4.96-0.3l0.51,8.5l5.87-0.36l-0.51-8.5L665.13,418.72z
		 M647.02,419.81l-5.24,11.33l6.57,10.62l-5.55,0.34l-3.18-5.61l-2.49,5.92l-5.54,0.33l5.24-11.33l-6.57-10.62l5.54-0.33l3.18,5.61
		l2.49-5.92L647.02,419.81z M627.19,421l0.3,4.96l-8.5,0.51l0.21,3.54l6.26-0.38l0.3,4.96l-6.26,0.38l0.21,3.54l8.5-0.51l0.3,4.96
		l-13.46,0.81l-1.32-21.96L627.19,421z"/>
</g>
</svg>
