<svg id="Layer_1" data-name="Layer 1" xmlns="http://www.w3.org/2000/svg" viewBox="0 0 1022.83 739.34"><title>36c3</title><g id="text947" style="isolation:isolate"><text transform="translate(0 548.74)" style="isolation:isolate;font-size:119.7717514038086px;font-family:Arial-Black, Arial;font-weight:800">{{ number }}</text></g><g id="text1016" style="isolation:isolate"><text transform="translate(612.59 630.42)" style="isolation:isolate;font-size:28.935693740844727px;font-family:ArialMT, Arial">If full, please report at</text><text transform="translate(612.59 666.59)" style="isolation:isolate;font-size:28.935693740844727px;font-family:ArialMT, Arial">{{ request.url_root }}{{ number }}</text></g><text transform="translate(3.32 116.23)" style="font-size:125px;font-family:BlackoutMidnightUmlauts, Blackout MidnightUmlauts">Bottle<tspan x="0" y="143">D</tspan><tspan x="72.51" y="143" style="letter-spacing:-0.013671875em">r</tspan><tspan x="134.52" y="143">op</tspan><tspan x="0" y="286">point</tspan></text><path id="path16" d="M700.17,656.33" transform="translate(-79.65 -59.75)" style="fill:#00bb31"/><path id="path24" d="M700.17,656.33" transform="translate(-79.65 -59.75)" style="fill:#00bb31"/><path id="path28" d="M700.17,656.33" transform="translate(-79.65 -59.75)" style="fill:#00bb31"/><path id="path32" d="M700.17,656.33" transform="translate(-79.65 -59.75)" style="fill:#00bb31"/><path id="path22" d="M297.69,656.33l9.12,15.19h7.35a1.5,1.5,0,1,0,0-1.49h-6.5l-7.33-12.21h14.81l9.28,9.28V669l-8.66-8.65h-7.23a1.5,1.5,0,1,0,0,1.49h6.61l9.46,9.45,2.15,3,1,2.29.26.06,2.52,1.78,3.55,1.59,2.19.94,1.66,2.72-.84-3.28-1.77-1.22-3.14-1.87-2.1-2-.32-.11L328,673.4l-2.05-2.86v-4.06l-10.16-10.15Z" transform="translate(-79.65 -59.75)" style="fill:#00bb31"/><path id="path44" d="M415.05,725.39" transform="translate(-79.65 -59.75)" style="fill:none"/><path id="path48" d="M415.05,725.39" transform="translate(-79.65 -59.75)" style="fill:none"/><path id="path52" d="M415.05,725.39" transform="translate(-79.65 -59.75)" style="fill:none"/><path id="path58" d="M415.05,725.39" transform="translate(-79.65 -59.75)" style="fill:none"/><path id="path62" d="M415.05,725.39" transform="translate(-79.65 -59.75)" style="fill:none"/><path id="path68" d="M415.05,725.39" transform="translate(-79.65 -59.75)" style="fill:none"/><path id="path1742" d="M415.05,725.39" transform="translate(-79.65 -59.75)" style="fill:none"/><path id="path1746" d="M415.05,725.39" transform="translate(-79.65 -59.75)" style="fill:none"/><path id="path1750" d="M415.05,725.39" transform="translate(-79.65 -59.75)" style="fill:none"/><path id="path1754" d="M415.05,725.39" transform="translate(-79.65 -59.75)" style="fill:none"/><path id="path1758" d="M415.05,725.39" transform="translate(-79.65 -59.75)" style="fill:none"/><path id="path1762" d="M415.05,725.39" transform="translate(-79.65 -59.75)" style="fill:none"/><path id="path1766" d="M415.05,725.39" transform="translate(-79.65 -59.75)" style="fill:none"/><path id="path1770" d="M415.05,725.39" transform="translate(-79.65 -59.75)" style="fill:none"/><path id="path1774" d="M415.05,725.39" transform="translate(-79.65 -59.75)" style="fill:none"/><path id="path1778" d="M415.05,725.39" transform="translate(-79.65 -59.75)" style="fill:none"/><path id="path1782" d="M415.05,725.39" transform="translate(-79.65 -59.75)" style="fill:none"/><path id="path1786" d="M415.05,725.39" transform="translate(-79.65 -59.75)" style="fill:none"/><path id="path1790" d="M415.05,725.39" transform="translate(-79.65 -59.75)" style="fill:none"/><path id="path1794" d="M415.05,725.39" transform="translate(-79.65 -59.75)" style="fill:none"/><path id="path1800" d="M415.05,725.39" transform="translate(-79.65 -59.75)" style="fill:none"/><path id="path2233" d="M415.05,725.39" transform="translate(-79.65 -59.75)" style="fill:none"/><path id="path2237" d="M415.05,725.39" transform="translate(-79.65 -59.75)" style="fill:none"/><path id="path2241" d="M415.05,725.39" transform="translate(-79.65 -59.75)" style="fill:none"/><path id="path2245" d="M415.05,725.39" transform="translate(-79.65 -59.75)" style="fill:none"/><path id="path2249" d="M415.05,725.39" transform="translate(-79.65 -59.75)" style="fill:none"/><path id="path2253" d="M415.05,725.39" transform="translate(-79.65 -59.75)" style="fill:none"/><path id="path2257" d="M415.05,725.39" transform="translate(-79.65 -59.75)" style="fill:none"/><path id="path2261" d="M415.05,725.39" transform="translate(-79.65 -59.75)" style="fill:none"/><path id="path2265" d="M415.05,725.39" transform="translate(-79.65 -59.75)" style="fill:none"/><path id="path2269" d="M415.05,725.39" transform="translate(-79.65 -59.75)" style="fill:none"/><path id="path2273" d="M415.05,725.39" transform="translate(-79.65 -59.75)" style="fill:none"/><path id="path2277" d="M415.05,725.39" transform="translate(-79.65 -59.75)" style="fill:none"/><path id="path2281" d="M415.05,725.39" transform="translate(-79.65 -59.75)" style="fill:none"/><path id="path2285" d="M415.05,725.39" transform="translate(-79.65 -59.75)" style="fill:none"/><path id="path2291" d="M415.05,725.39" transform="translate(-79.65 -59.75)" style="fill:none"/><path id="path3260" d="M415.05,725.39" transform="translate(-79.65 -59.75)" style="fill:none"/><path id="path3266" d="M415.05,725.39" transform="translate(-79.65 -59.75)" style="fill:none"/><path id="path3314" d="M415.05,725.39" transform="translate(-79.65 -59.75)" style="fill:none"/><path id="path3320" d="M415.05,725.39" transform="translate(-79.65 -59.75)" style="fill:none"/><path id="path3340" d="M415.05,725.39" transform="translate(-79.65 -59.75)" style="fill:none"/><path id="path7713" d="M415.05,725.39" transform="translate(-79.65 -59.75)" style="fill:none"/><path id="path7719" d="M415.05,725.39" transform="translate(-79.65 -59.75)" style="fill:none"/><path id="path7725" d="M415.05,725.39" transform="translate(-79.65 -59.75)" style="fill:none"/><path id="path7773" d="M415.05,725.39" transform="translate(-79.65 -59.75)" style="fill:none"/><path id="path8214" d="M415.05,725.39" transform="translate(-79.65 -59.75)" style="fill:none"/><path id="path8218" d="M415.05,725.39" transform="translate(-79.65 -59.75)" style="fill:none"/><path id="path8222" d="M415.05,725.39" transform="translate(-79.65 -59.75)" style="fill:none"/><path id="path8226" d="M415.05,725.39" transform="translate(-79.65 -59.75)" style="fill:none"/><path id="path8230" d="M415.05,725.39" transform="translate(-79.65 -59.75)" style="fill:none"/><path id="path8234" d="M415.05,725.39" transform="translate(-79.65 -59.75)" style="fill:none"/><path id="path8238" d="M415.05,725.39" transform="translate(-79.65 -59.75)" style="fill:none"/><path id="path8242" d="M415.05,725.39" transform="translate(-79.65 -59.75)" style="fill:none"/><path id="path8246" d="M415.05,725.39" transform="translate(-79.65 -59.75)" style="fill:none"/><path id="path8250" d="M415.05,725.39" transform="translate(-79.65 -59.75)" style="fill:none"/><path id="path8254" d="M415.05,725.39" transform="translate(-79.65 -59.75)" style="fill:none"/><path id="path8258" d="M415.05,725.39" transform="translate(-79.65 -59.75)" style="fill:none"/><path id="path8262" d="M415.05,725.39" transform="translate(-79.65 -59.75)" style="fill:none"/><path id="path8266" d="M415.05,725.39" transform="translate(-79.65 -59.75)" style="fill:none"/><path id="path8272" d="M415.05,725.39" transform="translate(-79.65 -59.75)" style="fill:none"/><path id="path2" d="M251.62,739a27.83,27.83,0,0,1,3.47,8,29.14,29.14,0,0,1,.92,7.11l-1.32-.13-3.43,1.25-2.06,1.16-2.73-.11L242.86,754l-3.11-1.72L237,751.05l-2.3-.75-1-.39a9,9,0,0,0-3-2.84l0-2.08-3.61-2.11.76-4-2.77-1.71-.44-3.59,2.22-3.59.26-2.29-.92-2.6,1.54-2,3.11-2.32,2.43-1.87,1.38-1.85,1.12-2.38a25.51,25.51,0,0,1,.92,3.4,28,28,0,0,1,.29,9.34,28.23,28.23,0,0,1,8.21,4.37,26.56,26.56,0,0,1,6.44,7.21Z" transform="translate(-79.65 -59.75)" style="fill:#d0d0ce"/><path id="path4" d="M227,740.44a27.9,27.9,0,0,1-5.07,7.36,29.12,29.12,0,0,1-7.16,5.45,28.19,28.19,0,0,1-8.84,3,27.63,27.63,0,0,1-11.37-.35,28.92,28.92,0,0,1-17.6-12.55,28.34,28.34,0,0,1-4.08-10.68l20.63-3.49a7.67,7.67,0,0,0,3.14,5.09,7.66,7.66,0,0,0,10.07-.95,7.9,7.9,0,0,0,2-4.33,5.73,5.73,0,0,0,0-2.27c0-.09,0-.17-.05-.26l.73.72,1.85,1.56,2.06,2.2,2.24,2.77,2.5,3.41,2.49,1.13,2.35-.29,3.64.13,1.18.63c-.24.57-.48,1.14-.75,1.71Z" transform="translate(-79.65 -59.75)" style="fill:#d0d0ce"/><path id="path6" d="M250.92,725.42l6.72-37.51a28.94,28.94,0,0,1,3.82-10,28,28,0,0,1,5.5-6.59l.07.14,1.26,1.57,1.26,3.28,2.53,2.93,1.51,3.41-.87,2.73.93,2-.37,2.84.48,3.08-.42,2.79-.11,3.33-.15,2.58-.85,3-2.3,2,.8,2.6-1.56,3-.25,3.81-2,1.3-.78,1.91-2,3-2.37,2.06-.93,2.92-3.42.28-1.2,2.52L252.72,729l-2.27,2.51a29.47,29.47,0,0,1,.47-6.07Z" transform="translate(-79.65 -59.75)" style="fill:#d0d0ce"/><path id="path8" d="M307.3,732.54a33.64,33.64,0,0,1-3.57,10.71,27.48,27.48,0,0,1-6.61,8.14,24,24,0,0,1-9.41,4.72,29.35,29.35,0,0,1-12,.32,34.62,34.62,0,0,1-11.61-3.9,25.77,25.77,0,0,1-8-6.92,24.37,24.37,0,0,1-4.25-9.2,26.22,26.22,0,0,1-.65-4.69l2.23-2.55,3.49,1.3,1.17-2.54,3.41-.34.88-2.93,2.34-2.1,1.94-3,.75-1.93,2-1.33.19-3.81,1.51-3-.84-2.59,2.26-2.07.81-3,.1-2.58.06-3.33.36-2.8-.52-3.07.32-2.84-1-2,.82-2.74-1.57-3.39-2.57-2.88L268,673l-1.29-1.55-.07-.14c.55-.5,1.13-1,1.72-1.44A29.64,29.64,0,0,1,301,668.24,25.83,25.83,0,0,1,313,684.81a29,29,0,0,1,.26,11.21l-19.43-3.15a7.64,7.64,0,0,0-1.32-5.83,7.67,7.67,0,0,0-10.82-1.75,7.69,7.69,0,0,0-3.1,5.11l-.12,0-2.12,13a4.14,4.14,0,0,1,1.58-1.57,9.57,9.57,0,0,1,2.71-1.14,25.15,25.15,0,0,1,3-.58,8.68,8.68,0,0,1,2.47,0q12.54,2,17.94,10.73t3.31,21.61Z" transform="translate(-79.65 -59.75)" style="fill:#d0d0ce"/><path id="path10" d="M308.85,753.72l-1.5-19.12A45.44,45.44,0,0,1,308.59,721a36.42,36.42,0,0,1,5.52-12.37c.16-.22.32-.45.49-.67l.9,1.11-.07,3.27-.34,3.06.21,3.24,1.74,3.54-.39,2.82,2.08,2.78-.69,3.11-1.08,2.1,1.92,3.17-.95,2.55,1.32,3.93-1.82,2.4-1.53,3,.38,3.77-3.4,2.43-3.64,2.15c-.15-.87-.28-1.74-.39-2.63Z" transform="translate(-79.65 -59.75)" style="fill:#d0d0ce"/><path id="path12" d="M443.45,699.36a27.8,27.8,0,0,1-11.08,2.25,28.7,28.7,0,0,1-8.61-1.32l.08-.22,3.79-.68,2.09-1.36.73-2.22,3.62-1.47.85-2.42,2.22-2,1.75-1.38Z" transform="translate(-79.65 -59.75)" style="fill:#d0d0ce"/><path id="path14" d="M147.7,699.72l-7.41,7.42V711l-1.78.85-7,1.05-.92,2.24-.74,3.52-.56,2.75-.95,1.94-3.42,2.19-2.11,1.21-1.25,3.08.8,2.9,0,1.1-.94,1.5-1.55,2.46-.35,2.88-3,1.78,3.29-.85.52-2.41.89-1,1.81,2.5-1.08-2.7,1.87-2.22.15-1,.17-.21,1.38-3.36.52-2.41,3.59-1.72,1.12-1.47.73-2.29.9-3,1.29-2.24.2-.06,5.22-4.79,2.63-1.26v-.16l6.54-6.54h6.49a1.5,1.5,0,1,0,0-1.49H147.7l-5.92,5.92v-1.88l6.54-6.53h14.4l-7,9.46H149.3a1.49,1.49,0,1,0,0,1.5h7.18l9.2-12.46Z" transform="translate(-79.65 -59.75)" style="fill:#00bb31"/><path id="path18" d="M82.2,711.22a6.85,6.85,0,0,0,5.78-2l4.18-4.28L105,717.45l-4.18,4.28A6.85,6.85,0,0,0,99,727.57a9.28,9.28,0,0,0,2.72,5.78,6.35,6.35,0,0,0,1.86,1.3,8,8,0,0,0,4.73.78,7.3,7.3,0,0,0,4.33-2.22,7.65,7.65,0,0,0-.14-10.92l14.62-15a28.44,28.44,0,0,1,4.43,5.54l-.92,2.24-.74,3.52-.56,2.75-.95,1.94-3.42,2.19-2.11,1.21-1.25,3.08.8,2.9,0,1.1-.94,1.5-1.55,2.46-.35,2.88-3,1.78,3.29-.84.52-2.42.89-1,1.81,2.5-1.08-2.7,1.87-2.22.15-1,.17-.21,1.38-3.36.52-2.41,3.59-1.72,1.12-1.47.73-2.29.9-3,1.29-2.24.2-.06a28.62,28.62,0,0,1,1.75,9.52,29,29,0,0,1-1.94,10.81,27.61,27.61,0,0,1-6.18,9.55,28.28,28.28,0,0,1-7.5,5.55,29.45,29.45,0,0,1-8.55,2.79,27.65,27.65,0,0,1-8.94,0,29.48,29.48,0,0,1-8.58-2.8,27.38,27.38,0,0,1-6.93-5,28.05,28.05,0,0,1-4-4.83l.51-2.57.9-2.14,1.9-2.39,2.46-3,1-2.32-1.52-2.3-.3-2.29,1.29-4-1.29-3.38-3.1-1L84.72,714l-4-1.18-.55-2a10.74,10.74,0,0,0,2,.37Z" transform="translate(-79.65 -59.75)" style="fill:#d0d0ce"/><path id="path20" d="M375.75,730.1a11.71,11.71,0,0,0,4-8.43,20.63,20.63,0,0,0-1.87-9l19.63-6.54c.6,1.56,1.29,3.63,2.09,6.21a29.52,29.52,0,0,1,1.15,8.9,33.24,33.24,0,0,1-2.14,10.94,37,37,0,0,1-7.82,12.17l-.08.09q-6.37,7-12.91,9.72a28.69,28.69,0,0,1-13,2.31,32.3,32.3,0,0,1-12.63-3.52,62.55,62.55,0,0,1-9.69-6.06l1.19-4.05.82-4.1-2.86-2.49-.94-3.24-.31-3-3.65-2-1.05-2.52-3.57-1-.65-2.27-1.62-2.74-3.42-.61-1.65-2.32-3.69-1.39-2.36-2.23-1.85-2.46L314.68,708l-1.42-.2a32,32,0,0,1,1.16-12.8,33.8,33.8,0,0,1,7.81-13.27l.08-.09a43.6,43.6,0,0,1,5.48-5.12l.26.06,2.52,1.78,3.55,1.59,2.19.94,1.66,2.72-.84-3.28-1.77-1.22-3.14-1.87-2.1-2-.32-.11a26.82,26.82,0,0,1,2.89-1.67,32,32,0,0,1,10.39-3.26,28.88,28.88,0,0,1,9.89.43,44.72,44.72,0,0,1,8.82,2.9l-4.72,20.14a26.91,26.91,0,0,0-4.79-1.58,18.83,18.83,0,0,0-5.27-.51,15.05,15.05,0,0,0-5.06,1.11,10.38,10.38,0,0,0-4.1,3,14.08,14.08,0,0,0-3.11,10.9,17.1,17.1,0,0,0,5.86,10.48l13.34,12.18a17.48,17.48,0,0,0,11.11,4.91A14.11,14.11,0,0,0,375.75,730.1Z" transform="translate(-79.65 -59.75)" style="fill:#d0d0ce"/><path id="path26" d="M516.63,696.57,511.21,702v4.15l-1.92,1.28-6.9,2.28-2.16,2,0,4.23-2.57,1.77-2.28,2.25.8,2.95L493.75,724l.16,2.25,0,0-1.82.77-.05,2.43L490.81,733l-.86,3.24,1.39-2.39,1.51-3,.32-2,2.1-.46.52.78-1.15,3.69-.9,3.7,2.14,2.58-1.14-2.54,1.39-3.68,1.65-3.67L496.69,727l1.08-1.54-.54-2.52,2.54-1.83,2.83-1.35.24-3.8,2.52-1.77h0l4.76-5.5,2.58-1.72v-.09l4.55-4.55h4.25a1.5,1.5,0,1,0,0-1.49h-4.87l-3.93,3.92V702.6l4.55-4.54h10l-4.9,7.72h-4.15a1.49,1.49,0,1,0,0,1.5h5L530,696.57Z" transform="translate(-79.65 -59.75)" style="fill:#00bb31"/><path id="path34" d="M444.92,756.38a28.22,28.22,0,0,1-8.6-1.23,29.34,29.34,0,0,1-8.1-4,27.74,27.74,0,0,1-6.43-6.22,29.23,29.23,0,0,1-4.18-8,28.16,28.16,0,0,1-1.51-9.22,27.65,27.65,0,0,1,2.22-11.15,29,29,0,0,1,15.29-15.28,28.07,28.07,0,0,1,11.21-2.26l0,20.92a7.62,7.62,0,0,0-5.53,2.25,7.36,7.36,0,0,0-2.3,5.49,7.26,7.26,0,0,0,1.57,4.6,7.81,7.81,0,0,0,3.92,2.73,5.57,5.57,0,0,0,2.25.37,9.21,9.21,0,0,0,6-2.25,6.84,6.84,0,0,0,2.73-5.48v-6l17.94,0v6a6.83,6.83,0,0,0,2.74,5.47,9.3,9.3,0,0,0,6,2.24,6.57,6.57,0,0,0,2.24-.38,8,8,0,0,0,3.92-2.75,7.33,7.33,0,0,0,1.55-4.61A7.67,7.67,0,0,0,480.1,720v-9.2l2.14-.59,2.81-1,1.72-1.89,3.92,0,1.53-1.76,2.45-.44,3.76.84.16-.18c.6.51,1.18,1,1.74,1.6a29.9,29.9,0,0,1,2.07,2.29l-2.16,2,0,4.23-2.57,1.77-2.28,2.25.8,2.95L493.75,724l.16,2.25,0,0-1.82.77-.05,2.43L490.81,733l-.86,3.24,1.39-2.39,1.51-3,.32-2,2.1-.46.52.78-1.15,3.69-.9,3.7,2.14,2.58-1.14-2.54,1.39-3.68,1.65-3.67L496.69,727l1.08-1.54-.54-2.52,2.54-1.83,2.83-1.35.24-3.8,2.52-1.78c.41.76.79,1.53,1.14,2.33a27.8,27.8,0,0,1,2.26,11.14,28.1,28.1,0,0,1-1.48,9.22,29.15,29.15,0,0,1-4.16,8,27.69,27.69,0,0,1-6.4,6.24,29.5,29.5,0,0,1-8.09,4,27.77,27.77,0,0,1-8.47,1.26,27.12,27.12,0,0,1-9.59-1.67,27.84,27.84,0,0,1-8.1-4.65,28.32,28.32,0,0,1-8,4.68,26.59,26.59,0,0,1-9.52,1.7Z" transform="translate(-79.65 -59.75)" style="fill:#d0d0ce"/><path id="path66" d="M397.52,762.12l-3.5-7.53a1.93,1.93,0,0,0,.91-.3,4.51,4.51,0,0,0,1.16-1,6.13,6.13,0,0,0,1-1.6,5.6,5.6,0,0,0,.49-2.2,9.54,9.54,0,0,0-.19-2.29,5,5,0,0,0-.85-1.92,4.4,4.4,0,0,0-1.64-1.35,6.44,6.44,0,0,0-2.64-.58l-5.65-.2L386,761.71l4.19.15.21-6h.05l2.28,6.11Zm-13.25,3.4.91-26,120.68,4.21-.91,26Zm28.07-17.24.14-4.19-11.35-.39-.65,18.52,11.35.39.15-4.18-7.17-.25.11-3,5.27.18.15-4.18-5.28-.19.11-3ZM427,758.48a5.49,5.49,0,0,0-.41-2.47,7,7,0,0,0-1.25-1.9,10.17,10.17,0,0,0-1.83-1.53c-.69-.46-1.41-.91-2.16-1.37a14.62,14.62,0,0,1-1.17-1,1.13,1.13,0,0,1-.36-.85,1.08,1.08,0,0,1,.44-.92,1.47,1.47,0,0,1,.92-.28,1.71,1.71,0,0,1,.83.23,2.14,2.14,0,0,1,.6.51,2.2,2.2,0,0,1,.39.63,4.54,4.54,0,0,1,.21.62l3.71-1.32a5.41,5.41,0,0,0-.47-1.52,4.72,4.72,0,0,0-1.06-1.4,6,6,0,0,0-1.71-1,6.86,6.86,0,0,0-2.39-.47,8.26,8.26,0,0,0-2.23.27,6,6,0,0,0-1.92.88,4.83,4.83,0,0,0-1.38,1.5,4.48,4.48,0,0,0-.57,2.12,4.76,4.76,0,0,0,.38,2.21,5.49,5.49,0,0,0,1.22,1.61,12.66,12.66,0,0,0,1.84,1.4q1.06.68,2.31,1.56a5.16,5.16,0,0,1,.85.79,1.34,1.34,0,0,1,.31.8,1.18,1.18,0,0,1-.42,1,1.66,1.66,0,0,1-.85.34,1.28,1.28,0,0,1-.92-.24,3.35,3.35,0,0,1-.72-.68,3.4,3.4,0,0,1-.43-.7c-.1-.22-.14-.33-.1-.35l-4,1.53a5.28,5.28,0,0,0,.74,1.81,5.92,5.92,0,0,0,1.31,1.38,6.92,6.92,0,0,0,1.75.91,7.45,7.45,0,0,0,2.1.37,9.23,9.23,0,0,0,2.6-.25,6.4,6.4,0,0,0,2-.85,4.29,4.29,0,0,0,1.32-1.33,3.55,3.55,0,0,0,.57-1.66ZM443.86,752a7.44,7.44,0,0,0-.39-2.48,6.2,6.2,0,0,0-1.27-2.19,7,7,0,0,0-2.27-1.72,6.63,6.63,0,0,0-2.75-.67h0a6.65,6.65,0,0,0-2.78.47A7.41,7.41,0,0,0,432,747a6.74,6.74,0,0,0-1.42,2.13,6.91,6.91,0,0,0-.56,2.41l-.15,4.34a10,10,0,0,0,.34,2.82,6,6,0,0,0,1.3,2.42,7.3,7.3,0,0,0,2.29,1.72,6.78,6.78,0,0,0,2.73.67h0a6.73,6.73,0,0,0,2.79-.47,7,7,0,0,0,2.39-1.59,5.83,5.83,0,0,0,1.49-2.38,9.32,9.32,0,0,0,.51-2.71ZM460,745.73l-4.31-.15-.37,10.83a5.54,5.54,0,0,1-.19,1.26,2.94,2.94,0,0,1-.46,1,2.1,2.1,0,0,1-.76.69,2.34,2.34,0,0,1-2.14-.08,2.28,2.28,0,0,1-.72-.73,3.2,3.2,0,0,1-.4-1.06,5.94,5.94,0,0,1-.09-1.28l.38-10.83-4.31-.15-.39,11.15a11,11,0,0,0,.27,2.83,6.47,6.47,0,0,0,1.07,2.42,5.57,5.57,0,0,0,2,1.7,6.86,6.86,0,0,0,3.07.68h0a6.9,6.9,0,0,0,2.91-.41,5.66,5.66,0,0,0,2.13-1.44,6.77,6.77,0,0,0,1.35-2.31,10,10,0,0,0,.54-3Zm13.72,19-3.5-7.53a1.94,1.94,0,0,0,.9-.3,4.5,4.5,0,0,0,1.17-1,6.39,6.39,0,0,0,1-1.6,5.74,5.74,0,0,0,.49-2.2,9.45,9.45,0,0,0-.2-2.28,5,5,0,0,0-.84-1.93,4.45,4.45,0,0,0-1.65-1.35,6.35,6.35,0,0,0-2.63-.58l-5.65-.2-.65,18.52,4.18.15.21-6h.05l2.28,6.11Zm9.77-3.77a2.84,2.84,0,0,1-2-1.11,3.53,3.53,0,0,1-.69-2.33L481,754a3.47,3.47,0,0,1,.84-2.25,2.84,2.84,0,0,1,2.07-.94,2.09,2.09,0,0,1,1,.24,3,3,0,0,1,.83.62,4.12,4.12,0,0,1,.61.87,5.07,5.07,0,0,1,.37.94l3.68-1.89a8.3,8.3,0,0,0-.7-1.72,5.65,5.65,0,0,0-1.21-1.56,6.44,6.44,0,0,0-1.84-1.17,7.55,7.55,0,0,0-2.6-.51h0a6.81,6.81,0,0,0-3,.53,6.32,6.32,0,0,0-2.21,1.6,7.24,7.24,0,0,0-1.38,2.34,9.22,9.22,0,0,0-.56,2.68l-.13,3.84a12.84,12.84,0,0,0,.35,2.79,6.66,6.66,0,0,0,1.1,2.38,5.83,5.83,0,0,0,2,1.68,7.56,7.56,0,0,0,3.15.7h0a7.31,7.31,0,0,0,2.87-.39,6.81,6.81,0,0,0,1.95-1.09,5.85,5.85,0,0,0,1.2-1.33c.29-.46.52-.83.68-1.12l-3.54-2.15a4.08,4.08,0,0,1-1.14,1.46,2.34,2.34,0,0,1-1.8.49ZM504,751.48l.15-4.19-11.36-.39-.64,18.52,11.35.39.15-4.18-7.17-.25.1-3,5.28.19.14-4.18-5.27-.19.1-3Z" transform="translate(-79.65 -59.75)" style="fill:#00bb31"/><path id="path68-2" data-name="path68" d="M367.66,768.88l.37-4.17-11.32-1-1.61,18.46,11.31,1,.37-4.16-7.15-.63.26-3,5.26.46.37-4.17-5.26-.46.26-3Zm-14.49,17,2.27-25.95,150.85,13.19-2.27,26Zm31.53-19.72-4.66-.41-2.81,4.66-2-5.07-4.66-.41,4.15,9.66L369,783.4l4.67.41,2.81-4.66,1.95,5.08,4.67.4L378.93,775Zm11.07,1-.62,7.15-4.94-.44.62-7.14-4.17-.37-1.61,18.46,4.17.37.62-7.15,4.94.43-.62,7.15,4.17.37,1.61-18.47Zm16,15.1,1.24,5,4.73.42L414,768.73l-5.56-.49-7,18,4.74.42,2.06-4.72ZM436,770.63l-4.29-.37-.94,10.79a5.89,5.89,0,0,1-.25,1.25,3.54,3.54,0,0,1-.51,1,2.25,2.25,0,0,1-.8.64,2,2,0,0,1-1.09.17,2.11,2.11,0,0,1-1-.35,2.24,2.24,0,0,1-.68-.78,3,3,0,0,1-.35-1.08,6,6,0,0,1,0-1.27l.94-10.8-4.29-.37-1,11.11a10.72,10.72,0,0,0,.11,2.84,6.66,6.66,0,0,0,.95,2.47,5.51,5.51,0,0,0,1.91,1.8,6.76,6.76,0,0,0,3,.84h0a7.07,7.07,0,0,0,2.92-.26,5.54,5.54,0,0,0,2.2-1.33,6.82,6.82,0,0,0,1.47-2.24,9.66,9.66,0,0,0,.7-3Zm13.71,15.15a5.6,5.6,0,0,0-.29-2.48,6.74,6.74,0,0,0-1.15-2,10.52,10.52,0,0,0-1.75-1.63c-.66-.49-1.36-1-2.08-1.48a14.11,14.11,0,0,1-1.12-1.06,1.18,1.18,0,0,1,.18-1.76,1.47,1.47,0,0,1,.93-.23,1.77,1.77,0,0,1,.82.27,2.26,2.26,0,0,1,.57.54,2.12,2.12,0,0,1,.36.66,3.92,3.92,0,0,1,.17.62l3.77-1.12a5,5,0,0,0-.39-1.54,4.59,4.59,0,0,0-1-1.45,6,6,0,0,0-1.65-1.14,7,7,0,0,0-2.36-.59,8.34,8.34,0,0,0-2.24.15,6.25,6.25,0,0,0-2,.78,4.71,4.71,0,0,0-1.45,1.43,4.35,4.35,0,0,0-.68,2.09,4.68,4.68,0,0,0,.26,2.22,5.54,5.54,0,0,0,1.13,1.67,12.89,12.89,0,0,0,1.77,1.5q1,.72,2.22,1.68a4.42,4.42,0,0,1,.81.83,1.27,1.27,0,0,1,.27.81,1.16,1.16,0,0,1-.47,1,1.72,1.72,0,0,1-.87.3,1.29,1.29,0,0,1-.91-.3,3.45,3.45,0,0,1-.68-.7,4.14,4.14,0,0,1-.4-.73c-.08-.22-.11-.34-.08-.35l-4.11,1.31A5.23,5.23,0,0,0,438,787a5.51,5.51,0,0,0,1.24,1.44,6.1,6.1,0,0,0,1.7,1,6.82,6.82,0,0,0,2.07.48,8.87,8.87,0,0,0,2.61-.11,6,6,0,0,0,2-.75,4.32,4.32,0,0,0,1.39-1.25,3.75,3.75,0,0,0,.66-1.63Zm15.55-12.56-12.56-1.1-.36,4.17,4.19.36L455.25,791l4.17.36L460.67,777l4.19.37Zm5,19,1.61-18.46-4.17-.37-1.61,18.46ZM488,782.06a7.53,7.53,0,0,0-.25-2.5,6.35,6.35,0,0,0-1.16-2.25,7.06,7.06,0,0,0-2.17-1.84,6.72,6.72,0,0,0-2.72-.81h0a6.92,6.92,0,0,0-2.8.33,7.7,7.7,0,0,0-2.48,1.44,7,7,0,0,0-2.21,4.43l-.38,4.32A10.22,10.22,0,0,0,474,788a6.22,6.22,0,0,0,1.17,2.48,7.6,7.6,0,0,0,2.21,1.84,6.63,6.63,0,0,0,2.69.81h0a6.68,6.68,0,0,0,2.82-.33,6.9,6.9,0,0,0,2.46-1.46,5.88,5.88,0,0,0,1.62-2.29,9.79,9.79,0,0,0,.65-2.68Zm12.19-5.79-.8,9.06-4.14-9.49-4.25-.37-1.61,18.46,4.42.39.79-9.08,4.17,9.51,4.22.37,1.61-18.46Z" transform="translate(-79.65 -59.75)" style="fill:#00bb31"/><path d="M806.64,235.23c-3.21-7-8.35-13.86-10.28-16.44-.24-.32-.42-.55-.51-.69s-.13-.18-.24-.33a40.06,40.06,0,0,1-7.51-23.26c0-14.56-1.14-41.65-3-60-.77-7.72-1.51-15.39-2.12-21.55-.58-5.94-.9-9.3-1.11-11.27a8.9,8.9,0,0,0,2.24-5.38c0-1-.26-2.45-1.73-9.76-.14-.69-.29-1.45-.44-2.2a5,5,0,0,0,1.47-1.72c1.15-2.22,1.21-10.53-.75-14.78-2.3-5-7.42-8.1-13.38-8.1H746.38c-6,0-11.08,3.1-13.38,8.1-2,4.27-1.89,12.58-.73,14.8a5.09,5.09,0,0,0,1.46,1.7c-.15.73-.3,1.48-.44,2.15-1.48,7.35-1.74,8.82-1.74,9.81a8.92,8.92,0,0,0,2.25,5.39c-.19,1.83-.49,4.87-1,10.07-.62,6.35-1.42,14.52-2.24,22.74-1.83,18.43-3,45.5-3,60a40,40,0,0,1-7.51,23.27l-.23.33-.51.68a96.84,96.84,0,0,0-10.29,16.44c-3.79,8.24-3.33,19.63-3.25,21.21,0,5.05.33,139.06.33,147.17-.47,19.49,2.17,29.24,9.11,33.61,8.22,5.36,34.67,5.78,42.6,5.78s34.39-.42,42.6-5.78c6.94-4.38,9.58-14.13,9.1-33.61,0-8.48.32-142.11.33-147.16C810,254.85,810.43,243.46,806.64,235.23ZM800,256c0,.1,0,.2,0,.3,0,1.4-.34,139.39-.34,147.39v.12c.45,18.1-2.19,23.61-4.49,25l-.11.07c-3,2-17.12,4.17-37.18,4.17s-34.13-2.15-37.18-4.17l-.11-.07c-2.3-1.44-4.94-6.94-4.5-25v-.12c0-7.59-.33-146-.33-147.39,0-.1,0-.2,0-.3-.18-2.81-.11-11.27,2.35-16.6,2.78-6,7.46-12.29,9.21-14.64.38-.51.64-.86.74-1l.11-.14a50.13,50.13,0,0,0,9.39-29.08c0-14.27,1.12-40.89,2.92-59,.82-8.22,1.62-16.4,2.24-22.76.55-5.66,1-10.58,1.15-11.62a5.73,5.73,0,0,0-1.57-4.71c-.15-.18-.41-.5-.64-.81.3-1.69.94-4.86,1.4-7.13,1.66-8.24,1.66-8.24,1.09-9.74a4.94,4.94,0,0,0-2.72-2.82A12.51,12.51,0,0,1,742,72c.79-1.72,2.85-2.32,4.37-2.32h22.93c1.6,0,3.58.61,4.37,2.33a12.12,12.12,0,0,1,.63,3.9,5,5,0,0,0-2.7,2.78c-.59,1.52-.59,1.52,1.08,9.83.45,2.25,1.09,5.4,1.39,7.08-.23.31-.49.63-.64.82a5.68,5.68,0,0,0-1.56,4.71c.12,1.11.65,6.55,1.26,12.8s1.35,13.85,2.12,21.57c1.81,18,2.92,44.69,2.92,59a50.05,50.05,0,0,0,9.4,29.08l.08.11c.12.18.38.53.76,1,1.76,2.35,6.44,8.59,9.21,14.64C800.07,244.67,800.15,253.16,800,256Z" transform="translate(-79.65 -59.75)"/><path d="M726.62,259.61a5,5,0,0,0,4.64-5.25c-.1-1.78-.06-7.11,1.43-10.34a57.94,57.94,0,0,1,6-9.51l.56-.75a5,5,0,0,0-8.18-5.62c-.06.09-.17.24-.32.43a67.3,67.3,0,0,0-7.06,11.3c-2.8,6.09-2.37,14.21-2.31,15.12a4.94,4.94,0,0,0,4.94,4.63Z" transform="translate(-79.65 -59.75)"/><path d="M793.62,398.57c0-.56,0-1.9,0-3.95-.07-6.26-.22-19.29-.22-36.24a5,5,0,0,0-5-5H728.55a5,5,0,0,0-5,5c0,16.95-.15,30-.23,36.24,0,2.05,0,3.39,0,3.95v1.05c0,16.65,0,22.88,5.63,24.63,4,1.24,16.81,1.86,27.08,1.91h4.91c10.24-.05,23.08-.67,27.06-1.91,5.63-1.74,5.63-8,5.62-24.63v-1.05Z" transform="translate(-79.65 -59.75)"/><path d="M928.85,235.23c-3.21-7-8.35-13.86-10.28-16.44-.24-.32-.42-.55-.51-.69s-.13-.18-.24-.33a40.06,40.06,0,0,1-7.51-23.26c0-14.56-1.14-41.65-3-60-.77-7.72-1.51-15.39-2.12-21.55-.58-5.94-.9-9.3-1.11-11.27a8.9,8.9,0,0,0,2.24-5.38c0-1-.26-2.45-1.73-9.76l-.44-2.2a5,5,0,0,0,1.47-1.72c1.15-2.22,1.21-10.53-.75-14.78-2.3-5-7.42-8.1-13.38-8.1H868.59c-6,0-11.08,3.1-13.38,8.1-2,4.27-1.89,12.58-.73,14.8a5.09,5.09,0,0,0,1.46,1.7c-.15.73-.3,1.48-.44,2.15-1.48,7.35-1.74,8.82-1.74,9.81A8.92,8.92,0,0,0,856,101.7c-.19,1.83-.49,4.87-1,10.07-.62,6.35-1.42,14.52-2.24,22.74-1.83,18.43-3,45.5-3,60a40,40,0,0,1-7.51,23.27l-.23.33-.51.68a96.84,96.84,0,0,0-10.29,16.44c-3.79,8.24-3.33,19.63-3.25,21.21,0,5.05.33,139.06.33,147.17-.47,19.49,2.17,29.24,9.11,33.61,8.22,5.36,34.67,5.78,42.6,5.78s34.39-.42,42.6-5.78c6.94-4.38,9.58-14.13,9.1-33.61,0-8.48.32-142.11.33-147.16C932.18,254.85,932.64,243.46,928.85,235.23ZM922.19,256c0,.1,0,.2,0,.3,0,1.4-.34,139.39-.34,147.39v.12c.45,18.1-2.19,23.61-4.49,25l-.11.07c-3,2-17.12,4.17-37.18,4.17s-34.13-2.15-37.18-4.17l-.11-.07c-2.3-1.44-4.94-6.94-4.5-25v-.12c0-7.59-.33-146-.33-147.39,0-.1,0-.2,0-.3-.18-2.81-.11-11.27,2.35-16.6,2.78-6,7.46-12.29,9.21-14.64.38-.51.64-.86.74-1l.11-.14a50.13,50.13,0,0,0,9.39-29.08c0-14.27,1.12-40.89,2.92-59,.82-8.22,1.62-16.4,2.24-22.76.55-5.66,1-10.58,1.15-11.62a5.73,5.73,0,0,0-1.57-4.71c-.15-.18-.41-.5-.64-.81.3-1.69.94-4.86,1.4-7.13,1.66-8.24,1.66-8.24,1.09-9.74a4.94,4.94,0,0,0-2.72-2.82,12.51,12.51,0,0,1,.62-3.91c.79-1.72,2.85-2.32,4.37-2.32h22.93c1.6,0,3.58.61,4.37,2.33a12.12,12.12,0,0,1,.63,3.9,5,5,0,0,0-2.7,2.78c-.59,1.52-.59,1.52,1.08,9.83.45,2.25,1.09,5.4,1.39,7.08-.23.31-.49.63-.64.82a5.68,5.68,0,0,0-1.56,4.71c.12,1.11.65,6.55,1.26,12.8s1.35,13.85,2.12,21.57c1.81,18,2.92,44.69,2.92,59a50.05,50.05,0,0,0,9.4,29.08l.08.11c.12.18.38.53.76,1,1.76,2.35,6.44,8.59,9.21,14.64C922.28,244.67,922.36,253.16,922.19,256Z" transform="translate(-79.65 -59.75)"/><path d="M848.83,259.61a5,5,0,0,0,4.64-5.25c-.1-1.78-.06-7.11,1.43-10.34a57.94,57.94,0,0,1,6-9.51l.56-.75a5,5,0,0,0-8.18-5.62c-.06.09-.17.24-.32.43a67.3,67.3,0,0,0-7.06,11.3c-2.8,6.09-2.37,14.21-2.31,15.12a4.94,4.94,0,0,0,4.94,4.63Z" transform="translate(-79.65 -59.75)"/><path d="M915.83,398.57c0-.56,0-1.9,0-3.95-.07-6.26-.22-19.29-.22-36.24a5,5,0,0,0-5-5H850.76a5,5,0,0,0-5,5c0,16.95-.15,30-.23,36.24,0,2.05,0,3.39,0,3.95v1.05c0,16.65,0,22.88,5.63,24.63,4,1.24,16.81,1.86,27.08,1.91h4.91c10.24-.05,23.08-.67,27.06-1.91,5.63-1.74,5.63-8,5.62-24.63v-1.05Z" transform="translate(-79.65 -59.75)"/><path d="M1051.06,235.23c-3.21-7-8.35-13.86-10.28-16.44-.24-.32-.42-.55-.51-.69s-.13-.18-.24-.33a40.06,40.06,0,0,1-7.51-23.26c0-14.56-1.14-41.65-3-60-.77-7.72-1.52-15.39-2.12-21.55-.58-5.94-.9-9.3-1.11-11.27a8.9,8.9,0,0,0,2.24-5.38c0-1-.26-2.45-1.73-9.76l-.44-2.2a5,5,0,0,0,1.47-1.72c1.15-2.22,1.21-10.53-.75-14.78-2.3-5-7.42-8.1-13.38-8.1H990.8c-6,0-11.08,3.1-13.38,8.1-2,4.27-1.89,12.58-.73,14.8a5.09,5.09,0,0,0,1.46,1.7c-.15.73-.3,1.48-.44,2.15-1.48,7.35-1.74,8.82-1.74,9.81a8.92,8.92,0,0,0,2.25,5.39c-.19,1.83-.49,4.87-1,10.07-.62,6.35-1.42,14.52-2.24,22.74-1.83,18.43-3,45.5-3,60a40,40,0,0,1-7.51,23.27l-.23.33-.51.68a96.84,96.84,0,0,0-10.29,16.44c-3.79,8.24-3.33,19.63-3.25,21.21,0,5.05.33,139.06.33,147.17-.47,19.49,2.17,29.24,9.11,33.61,8.22,5.36,34.67,5.78,42.6,5.78s34.39-.42,42.6-5.78c6.94-4.38,9.58-14.13,9.1-33.61,0-8.48.32-142.11.33-147.16C1054.39,254.85,1054.85,243.46,1051.06,235.23ZM1044.4,256c0,.1,0,.2,0,.3,0,1.4-.34,139.39-.34,147.39v.12c.45,18.1-2.19,23.61-4.49,25l-.11.07c-3,2-17.12,4.17-37.18,4.17s-34.13-2.15-37.18-4.17l-.11-.07c-2.3-1.44-4.94-6.94-4.5-25v-.12c0-7.59-.33-146-.33-147.39,0-.1,0-.2,0-.3-.18-2.81-.11-11.27,2.35-16.6,2.78-6,7.46-12.29,9.21-14.64.38-.51.64-.86.74-1l.11-.14a50.13,50.13,0,0,0,9.39-29.08c0-14.27,1.12-40.89,2.92-59,.82-8.22,1.62-16.4,2.24-22.76.55-5.66,1-10.58,1.15-11.62a5.73,5.73,0,0,0-1.57-4.71c-.15-.18-.41-.5-.64-.81.3-1.69.94-4.86,1.39-7.13,1.67-8.24,1.67-8.24,1.1-9.74a5,5,0,0,0-2.72-2.82,12.51,12.51,0,0,1,.62-3.91c.79-1.72,2.85-2.32,4.37-2.32h22.93c1.6,0,3.58.61,4.37,2.33a12.12,12.12,0,0,1,.63,3.9,5,5,0,0,0-2.7,2.78c-.59,1.52-.59,1.52,1.08,9.83.45,2.25,1.09,5.4,1.39,7.08-.23.31-.49.63-.64.82a5.68,5.68,0,0,0-1.56,4.71c.12,1.11.65,6.55,1.26,12.8s1.35,13.85,2.12,21.57c1.81,18,2.92,44.69,2.92,59a50.05,50.05,0,0,0,9.4,29.08l.08.11c.12.18.38.53.76,1,1.76,2.35,6.44,8.59,9.21,14.64C1044.49,244.67,1044.57,253.16,1044.4,256Z" transform="translate(-79.65 -59.75)"/><path d="M971,259.61a5,5,0,0,0,4.64-5.25c-.1-1.78-.06-7.11,1.43-10.34a57.94,57.94,0,0,1,6-9.51l.56-.75a5,5,0,0,0-8.18-5.62c-.06.09-.17.24-.32.43a67.3,67.3,0,0,0-7.06,11.3c-2.8,6.09-2.37,14.21-2.31,15.12a4.94,4.94,0,0,0,4.94,4.63Z" transform="translate(-79.65 -59.75)"/><path d="M1038,398.57c0-.56,0-1.9,0-3.95-.07-6.26-.22-19.29-.22-36.24a5,5,0,0,0-5-5H973a5,5,0,0,0-5,5c0,16.95-.15,30-.23,36.24,0,2.05,0,3.39,0,3.95v1.05c0,16.65,0,22.88,5.63,24.63,4,1.24,16.81,1.86,27.08,1.91h4.91c10.24-.05,23.08-.67,27.06-1.91,5.63-1.74,5.62-8,5.62-24.63v-1.05Z" transform="translate(-79.65 -59.75)"/><path id="path66-2" data-name="path66" d="M810,296.53l-6.54-14.06a3.63,3.63,0,0,0,1.7-.56,8.43,8.43,0,0,0,2.18-1.79,11.6,11.6,0,0,0,1.92-3,10.4,10.4,0,0,0,.91-4.12,17.12,17.12,0,0,0-.36-4.27,9.34,9.34,0,0,0-1.57-3.59,8.33,8.33,0,0,0-3.08-2.53,11.93,11.93,0,0,0-4.92-1.08l-10.56-.37-1.21,34.6,7.82.27.39-11.25h.09l4.26,11.42Zm-24.75,6.35,1.7-48.64,225.43,7.87-1.7,48.64Zm52.43-32.2.27-7.81-21.2-.74-1.21,34.59,21.2.74.27-7.81-13.39-.47.2-5.58,9.86.35.27-7.81-9.86-.35.2-5.58Zm27.36,19.07a10.59,10.59,0,0,0-.77-4.62,12.87,12.87,0,0,0-2.34-3.55,18.8,18.8,0,0,0-3.42-2.86c-1.29-.86-2.63-1.71-4-2.57a23.69,23.69,0,0,1-2.19-1.86,2.08,2.08,0,0,1-.67-1.59,2,2,0,0,1,.83-1.71,2.76,2.76,0,0,1,1.72-.53,3.19,3.19,0,0,1,1.54.43,4.36,4.36,0,0,1,1.13.95,4.11,4.11,0,0,1,.73,1.19,8.08,8.08,0,0,1,.38,1.15l6.93-2.46a9.67,9.67,0,0,0-.88-2.84,8.22,8.22,0,0,0-2-2.61,10.76,10.76,0,0,0-3.19-1.95,12.72,12.72,0,0,0-4.46-.88,15.28,15.28,0,0,0-4.17.51,11,11,0,0,0-3.59,1.64,8.84,8.84,0,0,0-2.57,2.8,8.35,8.35,0,0,0-1.07,4,8.77,8.77,0,0,0,.72,4.13,10.13,10.13,0,0,0,2.27,3,24.67,24.67,0,0,0,3.45,2.61q2,1.26,4.29,2.92a8.83,8.83,0,0,1,1.61,1.48,2.39,2.39,0,0,1,.57,1.48,2.16,2.16,0,0,1-.79,1.88,3.11,3.11,0,0,1-1.58.65,2.42,2.42,0,0,1-1.73-.46,5.94,5.94,0,0,1-1.33-1.26,7.14,7.14,0,0,1-.81-1.3c-.19-.41-.25-.63-.19-.66l-7.55,2.85a9.67,9.67,0,0,0,1.4,3.38,10.32,10.32,0,0,0,2.44,2.58,12.06,12.06,0,0,0,3.27,1.69,13.41,13.41,0,0,0,3.91.7,17.24,17.24,0,0,0,4.86-.46,12,12,0,0,0,3.71-1.59A8.3,8.3,0,0,0,864,293.5a6.81,6.81,0,0,0,1.07-3.1Zm31.52-12.08a13.75,13.75,0,0,0-.72-4.63,11.94,11.94,0,0,0-2.37-4.09,13.45,13.45,0,0,0-4.24-3.22,12.76,12.76,0,0,0-5.15-1.25h-.05a12.48,12.48,0,0,0-5.2.89,14,14,0,0,0-4.47,2.91,13.06,13.06,0,0,0-3.7,8.49l-.28,8.09a18.21,18.21,0,0,0,.63,5.28,11.45,11.45,0,0,0,2.42,4.51,14,14,0,0,0,4.29,3.22,12.61,12.61,0,0,0,5.1,1.25h0a12.6,12.6,0,0,0,5.22-.89,13,13,0,0,0,4.46-3,11.11,11.11,0,0,0,2.78-4.44,17.63,17.63,0,0,0,.95-5.07Zm30.21-11.75-8-.28-.7,20.23a10.41,10.41,0,0,1-.34,2.36,6.19,6.19,0,0,1-.86,1.93,4,4,0,0,1-1.42,1.27,3.82,3.82,0,0,1-2,.42,3.9,3.9,0,0,1-2-.55,4.45,4.45,0,0,1-1.35-1.38,5.78,5.78,0,0,1-.74-2,10.23,10.23,0,0,1-.17-2.38l.7-20.23-8-.28-.73,20.83a20.41,20.41,0,0,0,.49,5.28,12.44,12.44,0,0,0,2,4.52,10.33,10.33,0,0,0,3.75,3.18,13.1,13.1,0,0,0,5.73,1.27h0a13.11,13.11,0,0,0,5.42-.76,10.52,10.52,0,0,0,4-2.71,12.48,12.48,0,0,0,2.52-4.31,18.47,18.47,0,0,0,1-5.6Zm25.62,35.58-6.54-14.05a3.83,3.83,0,0,0,1.7-.57,8.77,8.77,0,0,0,2.18-1.79,12.15,12.15,0,0,0,1.92-3,10.7,10.7,0,0,0,.91-4.11,17.64,17.64,0,0,0-.36-4.28,9.42,9.42,0,0,0-1.58-3.59,8.35,8.35,0,0,0-3.08-2.53,11.86,11.86,0,0,0-4.92-1.08l-10.55-.37-1.21,34.6,7.81.27.39-11.25h.1l4.25,11.42Zm18.26-7a5.3,5.3,0,0,1-3.74-2.06,6.55,6.55,0,0,1-1.29-4.36l.23-6.74a6.37,6.37,0,0,1,1.57-4.2,5.26,5.26,0,0,1,3.85-1.76,3.94,3.94,0,0,1,1.85.44,5.66,5.66,0,0,1,1.54,1.17,6.88,6.88,0,0,1,1.13,1.63,10.29,10.29,0,0,1,.71,1.74l6.88-3.53a17.93,17.93,0,0,0-1.31-3.21,10.75,10.75,0,0,0-2.28-2.92,12,12,0,0,0-3.43-2.17,13.8,13.8,0,0,0-4.86-1h0a12.59,12.59,0,0,0-5.66,1,11.87,11.87,0,0,0-4.14,3,13.57,13.57,0,0,0-2.57,4.35,17.22,17.22,0,0,0-1,5l-.25,7.16a23.44,23.44,0,0,0,.66,5.21,12,12,0,0,0,2.06,4.45,10.71,10.71,0,0,0,3.8,3.14,14,14,0,0,0,5.89,1.32h0a13.58,13.58,0,0,0,5.36-.72,12.31,12.31,0,0,0,3.63-2,10.88,10.88,0,0,0,2.25-2.48q.82-1.28,1.26-2.1l-6.61-4a7.63,7.63,0,0,1-2.12,2.72,4.35,4.35,0,0,1-3.36.91Zm38.2-17.8.27-7.82-21.2-.74-1.21,34.6,21.2.74.27-7.81-13.39-.47.2-5.58,9.85.35.28-7.82-9.86-.34.19-5.58Z" transform="translate(-79.65 -59.75)" style="fill:#00bb31"/><path id="path68-3" data-name="path68" d="M754.25,309.17l.69-7.79-21.14-1.85-3,34.49,21.14,1.85.68-7.79-13.35-1.17.49-5.56,9.82.86.69-7.79-9.83-.86.49-5.56Zm-27.06,31.77,4.24-48.48,281.77,24.65L1009,365.6Zm58.89-36.83-8.71-.77-5.24,8.7-3.66-9.47-8.71-.77,7.76,18.06-10.78,16.43,8.71.76,5.25-8.69,3.65,9.47,8.72.76-7.76-18Zm20.68,1.81-1.17,13.35-9.22-.81,1.16-13.35-7.78-.68-3,34.48,7.79.68,1.16-13.34,9.23.8-1.17,13.35,7.79.68,3-34.48Zm29.9,28.21,2.31,9.35,8.85.78-7.09-35.37L830.35,308l-13.12,33.6,8.85.78,3.86-8.82Zm45.19-21.69-8-.7-1.76,20.16a10.66,10.66,0,0,1-.46,2.34,6.4,6.4,0,0,1-1,1.88,4,4,0,0,1-1.48,1.2,3.87,3.87,0,0,1-2,.31,3.78,3.78,0,0,1-2-.66,4.24,4.24,0,0,1-1.28-1.44,6,6,0,0,1-.64-2,10.44,10.44,0,0,1,0-2.38L865,311l-8-.7L855.14,331a20.2,20.2,0,0,0,.22,5.29,12.42,12.42,0,0,0,1.77,4.62,10.27,10.27,0,0,0,3.58,3.37,13.06,13.06,0,0,0,5.65,1.57h0a13,13,0,0,0,5.46-.48,10.35,10.35,0,0,0,4.12-2.48,12.7,12.7,0,0,0,2.74-4.18A18.52,18.52,0,0,0,880,333.2Zm25.6,28.3a10.63,10.63,0,0,0-.53-4.65,12.67,12.67,0,0,0-2.16-3.66,18.65,18.65,0,0,0-3.26-3.05c-1.24-.91-2.54-1.84-3.89-2.76a27.58,27.58,0,0,1-2.09-2,2.06,2.06,0,0,1-.58-1.61,2,2,0,0,1,.92-1.67,2.7,2.7,0,0,1,1.74-.43,3.26,3.26,0,0,1,1.52.5,4.73,4.73,0,0,1,1.08,1,4.39,4.39,0,0,1,.66,1.22,7.85,7.85,0,0,1,.32,1.18l7.05-2.1a9.67,9.67,0,0,0-.73-2.89,8.53,8.53,0,0,0-1.84-2.7,11,11,0,0,0-3.09-2.12,12.85,12.85,0,0,0-4.41-1.11,15.78,15.78,0,0,0-4.18.29,11.37,11.37,0,0,0-3.68,1.45,8.89,8.89,0,0,0-2.7,2.66,8.24,8.24,0,0,0-1.28,3.91,8.69,8.69,0,0,0,.5,4.15,10.11,10.11,0,0,0,2.11,3.13,24.39,24.39,0,0,0,3.31,2.79q1.9,1.35,4.13,3.14A8.5,8.5,0,0,1,897.9,337a2.41,2.41,0,0,1,.49,1.51,2.18,2.18,0,0,1-.88,1.84,3.13,3.13,0,0,1-1.61.56,2.45,2.45,0,0,1-1.71-.55,6,6,0,0,1-1.26-1.32,7.17,7.17,0,0,1-.75-1.35c-.16-.42-.21-.64-.15-.67l-7.69,2.46a9.87,9.87,0,0,0,1.22,3.44,10,10,0,0,0,2.31,2.7,12,12,0,0,0,3.18,1.87,13.22,13.22,0,0,0,3.86.9,16.82,16.82,0,0,0,4.88-.21,11.8,11.8,0,0,0,3.79-1.39,8.5,8.5,0,0,0,2.59-2.34,7,7,0,0,0,1.22-3.05Zm29-23.47L913,315.21l-.68,7.79,7.83.69-2.33,26.7,7.79.68,2.33-26.7,7.84.68Zm9.36,35.57,3-34.49-7.78-.68-3,34.48ZM979,333.78a13.59,13.59,0,0,0-.48-4.66,11.69,11.69,0,0,0-2.15-4.21,13.51,13.51,0,0,0-4.07-3.44,12.66,12.66,0,0,0-5.07-1.51h-.05a12.64,12.64,0,0,0-5.24.62,14,14,0,0,0-4.62,2.67,12.52,12.52,0,0,0-2.86,3.84,12.65,12.65,0,0,0-1.28,4.44l-.7,8.07a18.94,18.94,0,0,0,.35,5.31,11.55,11.55,0,0,0,2.19,4.63,13.88,13.88,0,0,0,4.11,3.44,12.62,12.62,0,0,0,5,1.51h.05a12.77,12.77,0,0,0,5.26-.62,13,13,0,0,0,4.6-2.72,11.07,11.07,0,0,0,3-4.29,18,18,0,0,0,1.21-5Zm22.76-10.8-1.48,16.91-7.74-17.72-7.93-.69-3,34.48,8.25.72,1.49-17,7.78,17.77,7.88.69,3-34.48Z" transform="translate(-79.65 -59.75)" style="fill:#00bb31"/><path id="path14-2" data-name="path14" d="M877.35,495.34l-11.79,11.79v6.09l-2.83,1.35-11.15,1.67-1.47,3.56-1.17,5.6-.9,4.38-1.5,3.09-5.45,3.49-3.36,1.92-2,4.9L837,547.8l0,1.74-1.49,2.4-2.46,3.9-.56,4.59-4.69,2.84,5.23-1.35.83-3.84,1.41-1.63,2.88,4-1.72-4.29,3-3.54.24-1.51.28-.34,2.19-5.33.82-3.84,5.72-2.74,1.77-2.35,1.16-3.63,1.44-4.86,2-3.57.33-.09,8.3-7.63,4.18-2v-.26l10.41-10.4h10.33a2.38,2.38,0,1,0,0-2.38H877.35l-9.42,9.41v-3l10.41-10.41h22.91l-11.12,15.07H879.9a2.38,2.38,0,1,0,0,2.37h11.43L906,495.34Z" transform="translate(-79.65 -59.75)" style="fill:#00bb31"/><path id="path22-2" data-name="path22" d="M617.53,507.57,632,531.75h11.69a2.38,2.38,0,1,0,0-2.38H633.38L621.73,510H645.3l14.76,14.76v3l-13.78-13.78H634.77a2.38,2.38,0,1,0,0,2.38H645.3l15,15,3.43,4.79,1.66,3.64.41.1,4,2.82,5.66,2.54,3.48,1.49,2.64,4.33-1.33-5.22-2.82-1.94-5-3-3.35-3.27-.49-.18-2.93-2.73-3.26-4.55v-6.46l-16.16-16.15Z" transform="translate(-79.65 -59.75)" style="fill:#00bb31"/><path id="path26-2" data-name="path26" d="M1070.26,463.92l-8.63,8.63v6.59l-3.05,2-11,3.63-3.43,3.18,0,6.72-4.09,2.83-3.62,3.58,1.27,4.69-3.9,1.82.25,3.58.05.07-2.89,1.21-.08,3.87-2,5.49L1027.8,527l2.21-3.8,2.41-4.81.51-3.2,3.34-.73.82,1.23-1.82,5.88-1.43,5.89,3.4,4.11-1.82-4,2.22-5.87,2.62-5.84-1.73-3.51,1.72-2.45-.86-4,4-2.9,4.51-2.15.38-6.06,4-2.81h0l7.57-8.75,4.11-2.75v-.14l7.23-7.23H1078a2.38,2.38,0,1,0,0-2.38h-7.75l-6.25,6.25v-3.38l7.23-7.23h16l-7.8,12.29h-6.6a2.38,2.38,0,1,0,0,2.38h7.91l10.82-17.05Z" transform="translate(-79.65 -59.75)" style="fill:#00bb31"/><path d="M855.87,531.87l111.65-41.64,1.13,1.74-2,2.91-2.21,1.49L963,498.25l-1.47,3.05-2.12,1.51-2.44.62-2,0-1.26,2-3.17.89-.86,1.18-3.75,1.4h0l-86.58,32.29-.28.1c-2.75.84-10.79,4-15,8.12l-.57.62-.1,0-2,2-1.71,1-2-.92-2.05,1.27-2.57.32-1.45,1.08-1.92-.55-2.32,2-1.76,1.1a99,99,0,0,1,11.45-14.83c6.47-6.54,17.48-10.17,19-10.54Z" transform="translate(-79.65 -59.75)" style="fill:#d0d0ce"/><path d="M1011.86,476.86c19.81-.45,29.7,2.28,34.12,9.36,5.42,8.37,5.71,35.3,5.68,43.32s-.57,35-6.07,43.28c-4.47,7-14.4,9.61-34.2,9-8.25,0-144.49-.32-149.61-.34-1.62.08-13.19.49-21.55-3.4a100,100,0,0,1-16.67-10.53l-.69-.53-.33-.23a40.69,40.69,0,0,0-23.62-7.77c-14.74-.07-42.25-1.39-61-3.34l-23.1-2.38c-5.29-.54-8.37-.85-10.23-1.06a9,9,0,0,1-5.5,2.26c-1,0-2.5-.24-10-1.81l-2.19-.45a5,5,0,0,1-1.72,1.53C683,555,674.51,555,670.18,553A14.59,14.59,0,0,1,662,539.37l.1-23.31a14.61,14.61,0,0,1,8.3-13.56c4.3-2,12.77-1.87,15-.69a5.08,5.08,0,0,1,1.75,1.54l2.22-.44c7.45-1.45,8.94-1.72,9.93-1.72a9.11,9.11,0,0,1,5.47,2.31c2-.2,5.42-.51,11.46-1.08l21.91-2.05c18.66-1.83,46.2-2.86,61-2.79A40.68,40.68,0,0,0,822.88,490l.33-.23.76-.46.79-.6,2-.4,2.87-1,1.6,1.2L833,488l2.51.62,2.37-.46,1.59,1.59,1.94-.29,2.62-1.11.08.08a88.71,88.71,0,0,0-14.18,8.92l-1.05.77-.12.07a50.82,50.82,0,0,1-29.6,9.44c-14.57-.07-41.6.93-60,2.69-7.86.75-15.67,1.48-21.94,2.05l-13,1.23a5.77,5.77,0,0,1-4.78-1.56l-.83-.66c-1.72.3-4.93.93-7.21,1.38-8.46,1.66-8.46,1.66-10,1.06a5.08,5.08,0,0,1-2.83-2.76,12.16,12.16,0,0,0-4,.63,4.74,4.74,0,0,0-2.4,4.42l-.1,23.31a4.85,4.85,0,0,0,2.34,4.46,12.46,12.46,0,0,0,4,.65,5.09,5.09,0,0,1,2.88-2.75c1.54-.58,1.54-.58,9.91,1.15,2.29.48,5.53,1.14,7.24,1.46l.82-.64a5.75,5.75,0,0,1,4.81-1.52l11.8,1.22L739,545.84c18.41,1.92,45.48,3.18,60,3.24a50.91,50.91,0,0,1,29.51,9.68l.16.1,1,.76a92,92,0,0,0,14.84,9.44c5.4,2.52,14,2.62,16.86,2.45h.31c1.42,0,142.17.31,149.84.34h.18c18.4.5,23.94-2.16,25.48-4.49v-.12c2.07-3.09,4.31-17.37,4.41-37.77s-2-34.74-4.07-37.81v-.11c-1.44-2.39-7-5.09-25.44-4.72h-.12c-3.16,0-26.25-.17-53.41-.35l1.23-.8,3.28.3,1.9-1.44,1.88.69,2.5.3,2.52-.67,2.45-2.32,2-1.24,2.59-.6,2.93-2-.43-2,30.44.19Z" transform="translate(-79.65 -59.75)" style="fill:#d0d0ce"/><path d="M953.66,571.76h0Z" transform="translate(-79.65 -59.75)" style="fill:#d0d0ce"/><path d="M833,556a5.06,5.06,0,0,1,6.94-1.77l.8.5c.48.33,1,.65,1.46,1l.61.88,0,2.22.67,2.83.3,1.49.91,1.75-1.44-1.44-2,.83-1.86-1.69-2.94.6-2.07-.86-.26.19A5.07,5.07,0,0,1,833,556Z" transform="translate(-79.65 -59.75)" style="fill:#d0d0ce"/><path d="M866.89,566a5,5,0,0,1-4.46,5.25c-.89.11-9.17,1-15.44-1.56a70.6,70.6,0,0,1-11.84-6.58l-.45-.3a5.65,5.65,0,0,1-.61-.45l.26-.19,2,.88,3-.57,1.84,1.71,2-.8,1.43,1.46-.89-1.76-.29-1.5-.64-2.83,0-2.22-.6-.89a59.09,59.09,0,0,0,8.52,4.65c3.35,1.27,8.78,1.1,10.59.9a5,5,0,0,1,5.57,4.45,2,2,0,0,1,0,.35Z" transform="translate(-79.65 -59.75)" style="fill:#d0d0ce"/><path d="M1004.44,501.08c16.93,0,23.27,0,25.06,5.68a39,39,0,0,1,1.08,6.7l-2.65.44-1.83,1.55-2.83-1.76-2.33.14-1.58,1.79-2.38-.69-2.56-.26-1.71-.1-1.71-.12-2.23,2-1.79-1.82-2.11.29-2.32,1.12-2.79,0-2.16.6-2.7-2.24-3.16,1.65-3-1.92-3.27.57-2.93-1.21-1.63-2.22-2.71-.08-2-2.12-1.65-1.94.64-3.65.2-2.06c10.95-.09,19.33-.23,24-.24h4Z" transform="translate(-79.65 -59.75)" style="fill:#d0d0ce"/><path d="M1031.47,534.25v5c0,10.51-.66,23.56-1.92,27.61-1.77,5.71-8.16,5.72-25,5.74h-5.07c-6.34-.07-19.57-.21-36.81-.18a5.06,5.06,0,0,1-5.06-5l-.08-60.85a5.06,5.06,0,0,1,5-5c4.57,0,8.85,0,12.8-.05l-.2,2.06-.64,3.65,1.65,1.94,2,2.12,2.71.08,1.63,2.22,2.93,1.22,3.26-.57,3,1.92,3.16-1.64,2.69,2.23,2.17-.6,2.79,0,2.31-1.11,2.12-.29,1.79,1.82,2.23-2,1.71.11,1.7.1,2.57.26,2.38.7,1.58-1.8,2.32-.13,2.84,1.76,1.83-1.55,2.65-.44c.58,5.83.89,13.89.9,20.8Z" transform="translate(-79.65 -59.75)" style="fill:#d0d0ce"/><path id="path44-2" data-name="path44" d="M800.4,515.44" transform="translate(-79.65 -59.75)" style="fill:none"/><path id="path48-2" data-name="path48" d="M800.4,515.44" transform="translate(-79.65 -59.75)" style="fill:none"/><path id="path52-2" data-name="path52" d="M800.4,515.44" transform="translate(-79.65 -59.75)" style="fill:none"/><path id="path58-2" data-name="path58" d="M800.4,515.44" transform="translate(-79.65 -59.75)" style="fill:none"/><path id="path62-2" data-name="path62" d="M800.4,515.44" transform="translate(-79.65 -59.75)" style="fill:none"/><path id="path68-4" data-name="path68" d="M800.4,515.44" transform="translate(-79.65 -59.75)" style="fill:none"/><path id="path1742-2" data-name="path1742" d="M800.4,515.44" transform="translate(-79.65 -59.75)" style="fill:none"/><path id="path1746-2" data-name="path1746" d="M800.4,515.44" transform="translate(-79.65 -59.75)" style="fill:none"/><path id="path1750-2" data-name="path1750" d="M800.4,515.44" transform="translate(-79.65 -59.75)" style="fill:none"/><path id="path1754-2" data-name="path1754" d="M800.4,515.44" transform="translate(-79.65 -59.75)" style="fill:none"/><path id="path1758-2" data-name="path1758" d="M800.4,515.44" transform="translate(-79.65 -59.75)" style="fill:none"/><path id="path1762-2" data-name="path1762" d="M800.4,515.44" transform="translate(-79.65 -59.75)" style="fill:none"/><path id="path1766-2" data-name="path1766" d="M800.4,515.44" transform="translate(-79.65 -59.75)" style="fill:none"/><path id="path1770-2" data-name="path1770" d="M800.4,515.44" transform="translate(-79.65 -59.75)" style="fill:none"/><path id="path1774-2" data-name="path1774" d="M800.4,515.44" transform="translate(-79.65 -59.75)" style="fill:none"/><path id="path1778-2" data-name="path1778" d="M800.4,515.44" transform="translate(-79.65 -59.75)" style="fill:none"/><path id="path1782-2" data-name="path1782" d="M800.4,515.44" transform="translate(-79.65 -59.75)" style="fill:none"/><path id="path1786-2" data-name="path1786" d="M800.4,515.44" transform="translate(-79.65 -59.75)" style="fill:none"/><path id="path1790-2" data-name="path1790" d="M800.4,515.44" transform="translate(-79.65 -59.75)" style="fill:none"/><path id="path1794-2" data-name="path1794" d="M800.4,515.44" transform="translate(-79.65 -59.75)" style="fill:none"/><path id="path1800-2" data-name="path1800" d="M800.4,515.44" transform="translate(-79.65 -59.75)" style="fill:none"/><path id="path2233-2" data-name="path2233" d="M800.4,515.44" transform="translate(-79.65 -59.75)" style="fill:none"/><path id="path2237-2" data-name="path2237" d="M800.4,515.44" transform="translate(-79.65 -59.75)" style="fill:none"/><path id="path2241-2" data-name="path2241" d="M800.4,515.44" transform="translate(-79.65 -59.75)" style="fill:none"/><path id="path2245-2" data-name="path2245" d="M800.4,515.44" transform="translate(-79.65 -59.75)" style="fill:none"/><path id="path2249-2" data-name="path2249" d="M800.4,515.44" transform="translate(-79.65 -59.75)" style="fill:none"/><path id="path2253-2" data-name="path2253" d="M800.4,515.44" transform="translate(-79.65 -59.75)" style="fill:none"/><path id="path2257-2" data-name="path2257" d="M800.4,515.44" transform="translate(-79.65 -59.75)" style="fill:none"/><path id="path2261-2" data-name="path2261" d="M800.4,515.44" transform="translate(-79.65 -59.75)" style="fill:none"/><path id="path2265-2" data-name="path2265" d="M800.4,515.44" transform="translate(-79.65 -59.75)" style="fill:none"/><path id="path2269-2" data-name="path2269" d="M800.4,515.44" transform="translate(-79.65 -59.75)" style="fill:none"/><path id="path2273-2" data-name="path2273" d="M800.4,515.44" transform="translate(-79.65 -59.75)" style="fill:none"/><path id="path2277-2" data-name="path2277" d="M800.4,515.44" transform="translate(-79.65 -59.75)" style="fill:none"/><path id="path2281-2" data-name="path2281" d="M800.4,515.44" transform="translate(-79.65 -59.75)" style="fill:none"/><path id="path2285-2" data-name="path2285" d="M800.4,515.44" transform="translate(-79.65 -59.75)" style="fill:none"/><path id="path2291-2" data-name="path2291" d="M800.4,515.44" transform="translate(-79.65 -59.75)" style="fill:none"/><path id="path3260-2" data-name="path3260" d="M800.4,515.44" transform="translate(-79.65 -59.75)" style="fill:none"/><path id="path3266-2" data-name="path3266" d="M800.4,515.44" transform="translate(-79.65 -59.75)" style="fill:none"/><path id="path3314-2" data-name="path3314" d="M800.4,515.44" transform="translate(-79.65 -59.75)" style="fill:none"/><path id="path3320-2" data-name="path3320" d="M800.4,515.44" transform="translate(-79.65 -59.75)" style="fill:none"/><path id="path3340-2" data-name="path3340" d="M800.4,515.44" transform="translate(-79.65 -59.75)" style="fill:none"/><path id="path7713-2" data-name="path7713" d="M800.4,515.44" transform="translate(-79.65 -59.75)" style="fill:none"/><path id="path7719-2" data-name="path7719" d="M800.4,515.44" transform="translate(-79.65 -59.75)" style="fill:none"/><path id="path7725-2" data-name="path7725" d="M800.4,515.44" transform="translate(-79.65 -59.75)" style="fill:none"/><path id="path7773-2" data-name="path7773" d="M800.4,515.44" transform="translate(-79.65 -59.75)" style="fill:none"/><path id="path8214-2" data-name="path8214" d="M800.4,515.44" transform="translate(-79.65 -59.75)" style="fill:none"/><path id="path8218-2" data-name="path8218" d="M800.4,515.44" transform="translate(-79.65 -59.75)" style="fill:none"/><path id="path8222-2" data-name="path8222" d="M800.4,515.44" transform="translate(-79.65 -59.75)" style="fill:none"/><path id="path8226-2" data-name="path8226" d="M800.4,515.44" transform="translate(-79.65 -59.75)" style="fill:none"/><path id="path8230-2" data-name="path8230" d="M800.4,515.44" transform="translate(-79.65 -59.75)" style="fill:none"/><path id="path8234-2" data-name="path8234" d="M800.4,515.44" transform="translate(-79.65 -59.75)" style="fill:none"/><path id="path8238-2" data-name="path8238" d="M800.4,515.44" transform="translate(-79.65 -59.75)" style="fill:none"/><path id="path8242-2" data-name="path8242" d="M800.4,515.44" transform="translate(-79.65 -59.75)" style="fill:none"/><path id="path8246-2" data-name="path8246" d="M800.4,515.44" transform="translate(-79.65 -59.75)" style="fill:none"/><path id="path8250-2" data-name="path8250" d="M800.4,515.44" transform="translate(-79.65 -59.75)" style="fill:none"/><path id="path8254-2" data-name="path8254" d="M800.4,515.44" transform="translate(-79.65 -59.75)" style="fill:none"/><path id="path8258-2" data-name="path8258" d="M800.4,515.44" transform="translate(-79.65 -59.75)" style="fill:none"/><path id="path8262-2" data-name="path8262" d="M800.4,515.44" transform="translate(-79.65 -59.75)" style="fill:none"/><path id="path8266-2" data-name="path8266" d="M800.4,515.44" transform="translate(-79.65 -59.75)" style="fill:none"/><path id="path8272-2" data-name="path8272" d="M800.4,515.44" transform="translate(-79.65 -59.75)" style="fill:none"/><path id="path36-6" d="M885.19,531.44,883,573.15l141.08,7.4L843,591.44l2.51,41.69,242.29-14.57-2.5-41.7-8.67.53,1.88-35.82Zm2.25,6,9,.47a10.3,10.3,0,0,1,4.2,1,7.23,7.23,0,0,1,2.61,2.22,8,8,0,0,1,1.29,3.11,14.76,14.76,0,0,1,.25,3.67,9.06,9.06,0,0,1-.84,3.51,10,10,0,0,1-1.7,2.53,7.1,7.1,0,0,1-1.89,1.5,3.1,3.1,0,0,1-1.47.46l5.4,12.16-7.69-.4-3.48-9.86h-.08l-.51,9.65-6.7-.35Zm23.2,1.21,18.19,1-.35,6.7L917,545.7l-.25,4.79,8.45.44-.35,6.7-8.45-.44-.25,4.78,11.48.61-.35,6.7-18.18-1Zm31.8,1.69h.46a10.86,10.86,0,0,1,3.82.82,9.46,9.46,0,0,1,2.71,1.72,7.33,7.33,0,0,1,1.66,2.26,8.13,8.13,0,0,1,.71,2.46l-6,2a8.33,8.33,0,0,0-.31-1,3.5,3.5,0,0,0-.61-1,3.81,3.81,0,0,0-.95-.83,2.72,2.72,0,0,0-1.32-.39,2.31,2.31,0,0,0-1.48.42,1.89,1.89,0,0,0-.19,2.83,22.34,22.34,0,0,0,1.85,1.64c1.19.75,2.33,1.5,3.42,2.26a16,16,0,0,1,2.89,2.51,11,11,0,0,1,2,3.08,9,9,0,0,1,.59,4l0,.55a5.9,5.9,0,0,1-1,2.65,7.16,7.16,0,0,1-2.15,2.09,10.05,10.05,0,0,1-3.21,1.31,14.55,14.55,0,0,1-4.17.32,11.65,11.65,0,0,1-3.35-.65,10.49,10.49,0,0,1-2.78-1.51,8.83,8.83,0,0,1-2.06-2.25,8.35,8.35,0,0,1-1.14-2.91l6.52-2.34q-.09,0,.15.57a5.64,5.64,0,0,0,.68,1.13,5.32,5.32,0,0,0,1.12,1.1,2.1,2.1,0,0,0,1.48.42,2.67,2.67,0,0,0,1.36-.53,1.88,1.88,0,0,0,.71-1.6,2.11,2.11,0,0,0-.48-1.29,7.7,7.7,0,0,0-1.35-1.29q-2-1.46-3.64-2.57a20.46,20.46,0,0,1-2.92-2.29,8.48,8.48,0,0,1-1.9-2.62,7.44,7.44,0,0,1-.56-3.55,7.13,7.13,0,0,1,1-3.38,7.58,7.58,0,0,1,2.24-2.37,9.69,9.69,0,0,1,3.11-1.35,13.06,13.06,0,0,1,3.12-.38Zm25.32,1.32.58,0h0a11,11,0,0,1,4.4,1.15,11.63,11.63,0,0,1,3.59,2.83,10,10,0,0,1,2,3.54,11.75,11.75,0,0,1,.56,4l-.37,6.94a15,15,0,0,1-.89,4.33,9.44,9.44,0,0,1-2.45,3.77,11.1,11.1,0,0,1-3.87,2.47,11,11,0,0,1-4.49.69h0a10.9,10.9,0,0,1-4.36-1.15,11.9,11.9,0,0,1-3.63-2.83,9.82,9.82,0,0,1-2-3.91,16,16,0,0,1-.46-4.54l.36-6.94a11.39,11.39,0,0,1,3.3-7.22,12,12,0,0,1,3.89-2.44,10.85,10.85,0,0,1,3.89-.7Zm15.82.78,6.9.36-.91,17.34a9.17,9.17,0,0,0,.11,2.05,5,5,0,0,0,.61,1.71,3.45,3.45,0,0,0,1.14,1.2,3.4,3.4,0,0,0,1.69.51,3.48,3.48,0,0,0,1.74-.33,3.41,3.41,0,0,0,1.23-1.07,5.4,5.4,0,0,0,.77-1.64,8.71,8.71,0,0,0,.32-2l.91-17.34,6.9.36-.94,17.86a15.56,15.56,0,0,1-.95,4.79,10.67,10.67,0,0,1-2.23,3.66,8.83,8.83,0,0,1-3.45,2.26,11.39,11.39,0,0,1-4.67.58h0a11.13,11.13,0,0,1-4.9-1.17,8.86,8.86,0,0,1-3.17-2.79,10.57,10.57,0,0,1-1.66-3.9,17.47,17.47,0,0,1-.34-4.54Zm25.95,1.4,9.06.47a10.14,10.14,0,0,1,4.2,1,7.2,7.2,0,0,1,2.6,2.22,7.89,7.89,0,0,1,1.3,3.1,14.87,14.87,0,0,1,.25,3.68,8.89,8.89,0,0,1-.85,3.51,9.88,9.88,0,0,1-1.69,2.53,7.34,7.34,0,0,1-1.9,1.5,3.07,3.07,0,0,1-1.46.46l5.4,12.16-7.69-.4-3.49-9.86h-.08l-.5,9.65-6.7-.36Zm33.1,1.75.68,0h0a11.4,11.4,0,0,1,4.15.9,10.19,10.19,0,0,1,2.92,1.91,9.23,9.23,0,0,1,1.9,2.54,14,14,0,0,1,1.08,2.77l-6,2.93a9.5,9.5,0,0,0-.58-1.51,6.23,6.23,0,0,0-.95-1.41,5,5,0,0,0-1.3-1,3.37,3.37,0,0,0-1.58-.4,4.54,4.54,0,0,0-3.34,1.45,5.45,5.45,0,0,0-1.4,3.58l-.31,5.78a5.62,5.62,0,0,0,1,3.76,4.52,4.52,0,0,0,3.18,1.82,3.74,3.74,0,0,0,2.9-.73,6.61,6.61,0,0,0,1.86-2.3l5.61,3.54c-.27.46-.64,1-1.12,1.78a9.25,9.25,0,0,1-2,2.09,10.91,10.91,0,0,1-3.15,1.7,11.85,11.85,0,0,1-4.61.53h0a11.89,11.89,0,0,1-5-1.22,9.23,9.23,0,0,1-3.22-2.75,10.4,10.4,0,0,1-1.69-3.85,20,20,0,0,1-.49-4.48l.32-6.14a15,15,0,0,1,1-4.29,11.57,11.57,0,0,1,2.27-3.7,10.28,10.28,0,0,1,3.59-2.51,10.42,10.42,0,0,1,4.2-.78Zm14.79.76,18.19.95-.35,6.7-11.49-.6-.25,4.78,8.46.45-.36,6.69-8.45-.44-.25,4.79,11.48.6-.35,6.7-18.18-1Zm26,36.51,1.78,29.65-6.78.41-8.85-14.11.88,14.59-7.09.43-1.79-29.66,6.82-.41,8.81,14.07-.88-14.55Zm-36.21,2.19a11.07,11.07,0,0,1,3.92.67,11.52,11.52,0,0,1,3.88,2.41,10.17,10.17,0,0,1,2.36,3.29,11.8,11.8,0,0,1,1,3.9l.42,6.94a15.17,15.17,0,0,1-.39,4.41,9.56,9.56,0,0,1-2,4,11.22,11.22,0,0,1-3.57,2.89,11,11,0,0,1-4.39,1.19h0a11.07,11.07,0,0,1-4.46-.65,11.88,11.88,0,0,1-3.92-2.41,9.66,9.66,0,0,1-2.44-3.65,16,16,0,0,1-1-4.46l-.42-6.94a10.84,10.84,0,0,1,.53-3.93,10.73,10.73,0,0,1,1.94-3.62,11.9,11.9,0,0,1,3.59-2.85,10.81,10.81,0,0,1,4.37-1.19h0l.58,0Zm-16.37,1,1.79,29.65-6.7.41-1.78-29.66Zm-10.64.64.4,6.7-6.73.4,1.38,23-6.7.4-1.38-23-6.73.41-.41-6.7Zm-31.9,2a9.84,9.84,0,0,1,2.82.41,9.16,9.16,0,0,1,2.89,1.41,7.26,7.26,0,0,1,1.9,2.06,8.17,8.17,0,0,1,1,2.36l-5.72,2.67a6.12,6.12,0,0,0-.41-1,3.89,3.89,0,0,0-.72-1,4.12,4.12,0,0,0-1-.71,2.7,2.7,0,0,0-1.35-.24,2.36,2.36,0,0,0-1.42.58,1.89,1.89,0,0,0,.13,2.84,22.55,22.55,0,0,0,2,1.42c1.26.61,2.48,1.23,3.65,1.86a15.83,15.83,0,0,1,3.15,2.17,10.6,10.6,0,0,1,2.29,2.84,8.92,8.92,0,0,1,1,3.88l0,.55a5.82,5.82,0,0,1-.65,2.74,7.31,7.31,0,0,1-1.9,2.32,10.13,10.13,0,0,1-3,1.66,14.85,14.85,0,0,1-4.12.79,11.42,11.42,0,0,1-3.39-.28,10.29,10.29,0,0,1-2.94-1.18,8.8,8.8,0,0,1-2.3-2,8.53,8.53,0,0,1-1.46-2.77l6.21-3.06c-.05,0,0,.21.22.55a6.1,6.1,0,0,0,.8,1,5.09,5.09,0,0,0,1.24,1,2.12,2.12,0,0,0,1.51.25,2.69,2.69,0,0,0,1.3-.68,1.86,1.86,0,0,0,.52-1.67,2.12,2.12,0,0,0-.61-1.23,8,8,0,0,0-1.49-1.13q-2.11-1.23-3.91-2.14a20.86,20.86,0,0,1-3.16-2,8.94,8.94,0,0,1-2.18-2.39,7.53,7.53,0,0,1-.95-3.47,7.09,7.09,0,0,1,.59-3.47,7.54,7.54,0,0,1,2-2.6,9.52,9.52,0,0,1,2.93-1.7,13.5,13.5,0,0,1,3.52-.77c.36,0,.72,0,1.06,0Zm-15.09.83,1.07,17.85a15.66,15.66,0,0,1-.41,4.87,10.75,10.75,0,0,1-1.8,3.88,8.86,8.86,0,0,1-3.19,2.64,11.18,11.18,0,0,1-4.57,1.09h0a11.36,11.36,0,0,1-5-.62,8.8,8.8,0,0,1-3.46-2.42,10.8,10.8,0,0,1-2.09-3.69,17.18,17.18,0,0,1-.84-4.47l-1.08-17.86,6.9-.41,1,17.34a9.17,9.17,0,0,0,.34,2,5.06,5.06,0,0,0,.8,1.63,3.65,3.65,0,0,0,1.26,1.06,3.37,3.37,0,0,0,1.74.32,3.41,3.41,0,0,0,1.69-.52,3.49,3.49,0,0,0,1.11-1.21,5.31,5.31,0,0,0,.58-1.71,9.2,9.2,0,0,0,.09-2l-1-17.34Zm-35.36,2.16,10.48,29.13-7.62.46-3.14-7.65-5.78.35-2.16,8-7.61.46,6.91-30.18ZM915.33,593l1.79,29.65-6.7.41-.69-11.48-7.93.47.69,11.48-6.7.4L894,594.25l6.7-.4.69,11.48,7.93-.48-.69-11.48Zm-24.47,1.47-7.08,15.31,8.87,14.34-7.5.46L880.86,617l-3.36,8-7.49.45,7.08-15.31-8.87-14.35,7.49-.45,4.3,7.58,3.36-8Zm-26.78,1.61.4,6.7-11.48.69.29,4.78,8.45-.51.4,6.7-8.45.51.29,4.78,11.48-.69.4,6.7-18.18,1.09-1.78-29.66Z" transform="translate(-79.65 -59.75)" style="fill:#fe5000"/></svg>